<svg width="266" height="60" viewBox="0 0 266 60" fill="none" xmlns="http://www.w3.org/2000/svg">
<mask id="mask0_1922_6183" style="mask-type:alpha" maskUnits="userSpaceOnUse" x="0" y="0" width="60" height="60">
<rect width="60" height="60" fill="#D9D9D9"/>
</mask>
<g mask="url(#mask0_1922_6183)">
<path d="M30 50C28 48.4167 25.8333 47.1875 23.5 46.3125C21.1667 45.4375 18.75 45 16.25 45C14.5 45 12.7812 45.2292 11.0938 45.6875C9.40625 46.1458 7.79167 46.7917 6.25 47.625C5.375 48.0833 4.53125 48.0625 3.71875 47.5625C2.90625 47.0625 2.5 46.3333 2.5 45.375V15.25C2.5 14.7917 2.61458 14.3542 2.84375 13.9375C3.07292 13.5208 3.41667 13.2083 3.875 13C5.79167 12 7.79167 11.25 9.875 10.75C11.9583 10.25 14.0833 10 16.25 10C18.6667 10 21.0313 10.3125 23.3438 10.9375C25.6563 11.5625 27.875 12.5 30 13.75V44C32.125 42.6667 34.3542 41.6667 36.6875 41C39.0208 40.3333 41.375 40 43.75 40C45.25 40 46.7188 40.125 48.1562 40.375C49.5938 40.625 51.0417 41 52.5 41.5V11.5C53.125 11.7083 53.7396 11.9271 54.3438 12.1562C54.9479 12.3854 55.5417 12.6667 56.125 13C56.5833 13.2083 56.9271 13.5208 57.1563 13.9375C57.3854 14.3542 57.5 14.7917 57.5 15.25V45.375C57.5 46.3333 57.0938 47.0625 56.2812 47.5625C55.4688 48.0625 54.625 48.0833 53.75 47.625C52.2083 46.7917 50.5938 46.1458 48.9062 45.6875C47.2188 45.2292 45.5 45 43.75 45C41.25 45 38.8333 45.4375 36.5 46.3125C34.1667 47.1875 32 48.4167 30 50ZM35 37.5V13.75L47.5 1.25V26.25L35 37.5Z" fill="url(#paint0_linear_1922_6183)"/>
</g>
<path d="M87.22 36.47C86.74 36.47 86.3867 36.35 86.16 36.11C85.9333 35.8567 85.74 35.4833 85.58 34.99C85.42 34.4833 85.1067 33.1367 84.64 30.95C84.3333 31.2167 83.8333 31.3633 83.14 31.39L79.72 31.51C78.9067 33.4967 78.3067 35.2633 77.92 36.81C76.64 36.3567 76 35.8433 76 35.27C76 35.0167 76.3867 34.07 77.16 32.43C77.9333 30.79 78.8067 28.93 79.78 26.85C80.7667 24.7567 81.4333 23.2367 81.78 22.29L82.14 21.31C82.0333 21.1233 81.7733 20.7833 81.36 20.29C81.84 20.13 82.2533 20.05 82.6 20.05C82.96 20.05 83.2533 20.0767 83.48 20.13C83.72 20.1833 83.9267 20.2767 84.1 20.41C84.2867 20.53 84.4467 20.6567 84.58 20.79C84.7267 20.9233 84.86 21.1233 84.98 21.39C85.1 21.6433 85.2 21.8767 85.28 22.09C85.36 22.29 85.4467 22.5767 85.54 22.95C85.6467 23.3233 85.7267 23.65 85.78 23.93C85.8467 24.1967 85.9267 24.5767 86.02 25.07C86.1267 25.55 86.2333 26.0167 86.34 26.47C86.4467 26.9233 86.6333 27.79 86.9 29.07C87.1667 30.3367 87.3733 31.29 87.52 31.93C87.68 32.5567 87.9 33.2633 88.18 34.05C88.4733 34.8367 88.78 35.4567 89.1 35.91C88.3267 36.2833 87.7 36.47 87.22 36.47ZM83.06 23.97C82.8733 24.3967 82.46 25.31 81.82 26.71C81.1933 28.0967 80.7067 29.2033 80.36 30.03H84.46C83.8333 27.15 83.3667 25.13 83.06 23.97Z" fill="#78350F"/>
<path d="M94.5506 21.09C94.6573 21.3033 94.7173 21.5033 94.7306 21.69C94.7573 21.8767 94.7706 22.2167 94.7706 22.71C94.7706 23.2033 94.5506 24.9567 94.1106 27.97C93.6706 30.9833 93.4506 33.0967 93.4506 34.31C93.4506 35.51 93.544 36.33 93.7306 36.77C92.5973 36.4767 91.824 36.09 91.4106 35.61C90.9973 35.1167 90.7906 34.4367 90.7906 33.57C90.7906 33.0633 90.9306 31.7767 91.2106 29.71C91.704 26.2833 91.9506 23.63 91.9506 21.75C91.9506 21.35 91.924 20.8033 91.8706 20.11C92.884 20.1633 93.624 20.3233 94.0906 20.59C94.2906 20.6967 94.444 20.8633 94.5506 21.09Z" fill="#78350F"/>
<path d="M108.186 27.15C108.186 25.2833 107.926 23.93 107.406 23.09C106.899 22.25 106.199 21.83 105.306 21.83C104.426 21.83 103.586 22.2233 102.786 23.01C101.999 23.7833 101.379 24.7633 100.926 25.95C100.486 27.1367 100.266 28.3367 100.266 29.55C100.266 31.2167 100.539 32.5833 101.086 33.65C101.646 34.7167 102.486 35.25 103.606 35.25C104.539 35.25 105.359 34.8433 106.066 34.03C106.786 33.2033 107.319 32.1833 107.666 30.97C108.012 29.7567 108.186 28.4833 108.186 27.15ZM108.546 34.47C107.946 35.1233 107.192 35.65 106.286 36.05C105.392 36.45 104.412 36.65 103.346 36.65C102.279 36.65 101.339 36.41 100.526 35.93C99.7256 35.45 99.0856 34.81 98.6056 34.01C97.6456 32.41 97.1656 30.5433 97.1656 28.41C97.1656 26.2767 97.6923 24.3767 98.7456 22.71C99.8123 21.0433 101.232 19.99 103.006 19.55C103.112 19.5767 103.212 19.63 103.306 19.71C103.412 19.79 103.472 19.8767 103.486 19.97C101.766 21.2233 100.726 22.93 100.366 25.09C100.926 23.5167 101.766 22.29 102.886 21.41C104.019 20.5167 105.232 20.07 106.526 20.07C107.819 20.07 108.919 20.63 109.826 21.75C110.746 22.8567 111.206 24.4633 111.206 26.57C111.206 28.6367 110.819 30.4967 110.046 32.15C109.646 33.03 109.146 33.8033 108.546 34.47Z" fill="#78350F"/>
<path d="M125.502 21.39C124.902 21.39 124.402 21.5767 124.002 21.95C123.602 22.31 123.402 22.8233 123.402 23.49C123.402 24.1567 123.569 24.7567 123.902 25.29C124.249 25.81 124.669 26.2567 125.162 26.63C125.669 26.99 126.216 27.3833 126.802 27.81C127.402 28.2367 127.949 28.6433 128.442 29.03C128.949 29.4033 129.369 29.87 129.702 30.43C130.049 30.99 130.222 31.5833 130.222 32.21C130.222 33.45 129.716 34.5033 128.702 35.37C127.689 36.2233 126.356 36.65 124.702 36.65C123.062 36.65 121.762 36.2967 120.802 35.59C119.842 34.8833 119.362 34.0833 119.362 33.19C119.362 32.2967 119.629 31.6033 120.162 31.11C120.696 30.6033 121.382 30.35 122.222 30.35C122.462 30.35 122.689 30.3767 122.902 30.43C122.489 31.0433 122.282 31.71 122.282 32.43C122.282 33.1367 122.502 33.75 122.942 34.27C123.382 34.7767 123.962 35.03 124.682 35.03C125.416 35.03 126.029 34.8433 126.522 34.47C127.016 34.0833 127.262 33.5967 127.262 33.01C127.262 32.41 127.096 31.8833 126.762 31.43C126.429 30.9767 126.016 30.59 125.522 30.27C125.029 29.9367 124.489 29.5633 123.902 29.15C123.316 28.7233 122.776 28.2967 122.282 27.87C121.789 27.4433 121.376 26.9033 121.042 26.25C120.709 25.5833 120.542 24.8567 120.542 24.07C120.542 22.8033 121.002 21.7967 121.922 21.05C122.842 20.29 124.082 19.91 125.642 19.91C127.202 19.91 128.382 20.2633 129.182 20.97C129.996 21.6633 130.402 22.41 130.402 23.21C130.402 23.9967 130.149 24.6633 129.642 25.21C129.136 25.7433 128.449 26.01 127.582 26.01C127.289 26.01 127.002 25.9833 126.722 25.93C127.376 25.2367 127.702 24.51 127.702 23.75C127.702 22.9767 127.489 22.39 127.062 21.99C126.636 21.59 126.116 21.39 125.502 21.39Z" fill="#78350F"/>
<path d="M136.9 26.75C136.834 27.23 136.694 28.0633 136.48 29.25C136.027 31.77 135.8 33.6367 135.8 34.85C135.8 36.0633 135.894 36.8767 136.08 37.29C135.054 37.0233 134.347 36.6167 133.96 36.07C133.574 35.51 133.38 34.7233 133.38 33.71C133.38 32.8167 133.52 31.5967 133.8 30.05C134.08 28.49 134.26 27.4367 134.34 26.89C133.647 27.01 132.907 27.2433 132.12 27.59C132.094 27.2967 132.08 27.0767 132.08 26.93C132.08 26.2233 132.294 25.7433 132.72 25.49C133.147 25.2233 133.76 25.0833 134.56 25.07C134.654 24.07 134.7 23.35 134.7 22.91C134.7 22.47 134.694 22.1033 134.68 21.81C134.68 21.5167 134.68 21.2967 134.68 21.15C135.56 21.2433 136.2 21.51 136.6 21.95C137 22.3767 137.2 22.99 137.2 23.79C137.2 24.11 137.167 24.5567 137.1 25.13C138.22 25.1033 139.04 24.8833 139.56 24.47C139.587 24.7367 139.6 24.9367 139.6 25.07C139.6 25.71 139.487 26.1567 139.26 26.41C139.034 26.65 138.654 26.77 138.12 26.77C137.587 26.77 137.18 26.7633 136.9 26.75Z" fill="#78350F"/>
<path d="M146.955 24.61C147.355 24.5833 147.635 24.57 147.795 24.57C148.489 24.57 149.015 24.6967 149.375 24.95C149.735 25.2033 149.915 25.67 149.915 26.35C149.915 26.5633 149.789 27.5033 149.535 29.17C149.282 30.8233 149.155 32.2433 149.155 33.43C149.155 34.6167 149.282 35.6633 149.535 36.57C148.535 36.25 147.842 35.7967 147.455 35.21C147.069 34.6233 146.875 33.8967 146.875 33.03C146.875 32.6967 146.949 31.9433 147.095 30.77C146.682 32.29 146.049 33.57 145.195 34.61C144.355 35.6367 143.562 36.15 142.815 36.15C141.282 36.15 140.515 35.0433 140.515 32.83C140.515 32.0967 140.622 31.0767 140.835 29.77C141.062 28.45 141.175 27.45 141.175 26.77C141.175 26.09 141.082 25.4033 140.895 24.71C142.002 24.71 142.802 24.8567 143.295 25.15C143.802 25.43 144.055 25.9967 144.055 26.85C144.055 27.3033 143.915 28.2033 143.635 29.55C143.355 30.8967 143.215 31.91 143.215 32.59C143.215 33.5767 143.482 34.07 144.015 34.07C144.282 34.07 144.589 33.89 144.935 33.53C145.282 33.1567 145.615 32.67 145.935 32.07C146.255 31.4567 146.522 30.6967 146.735 29.79C146.962 28.87 147.075 27.9433 147.075 27.01C147.075 26.0633 147.035 25.2633 146.955 24.61Z" fill="#78350F"/>
<path d="M154.904 32.11C154.904 33.6967 155.384 34.49 156.344 34.49C156.851 34.49 157.344 34.2167 157.824 33.67C158.304 33.1233 158.691 32.39 158.984 31.47C159.291 30.55 159.551 29.57 159.764 28.53C159.991 27.4767 160.158 26.3633 160.264 25.19C160.451 22.9233 160.544 21.1567 160.544 19.89C160.544 18.61 160.491 17.65 160.384 17.01C161.344 17.2233 162.018 17.6767 162.404 18.37C162.791 19.0633 162.984 19.9367 162.984 20.99C162.984 22.0433 162.758 24.0033 162.304 26.87C161.864 29.7367 161.644 31.83 161.644 33.15C161.644 34.47 161.704 35.59 161.824 36.51C160.878 36.2567 160.224 35.8033 159.864 35.15C159.518 34.4833 159.344 33.65 159.344 32.65C158.931 33.7967 158.311 34.7033 157.484 35.37C156.658 36.0367 155.804 36.37 154.924 36.37C154.044 36.37 153.324 36.0367 152.764 35.37C152.218 34.69 151.944 33.6967 151.944 32.39C151.944 30.3233 152.511 28.55 153.644 27.07C154.778 25.5767 156.118 24.83 157.664 24.83C158.104 24.83 158.798 24.9367 159.744 25.15C158.918 25.3633 158.178 25.7367 157.524 26.27C156.884 26.79 156.384 27.39 156.024 28.07C155.278 29.4167 154.904 30.7633 154.904 32.11Z" fill="#78350F"/>
<path d="M173.668 25.99C173.668 26.4567 173.468 27.09 173.068 27.89C172.668 28.6767 172.182 29.55 171.608 30.51C171.035 31.47 170.462 32.4967 169.888 33.59C169.315 34.67 168.828 35.89 168.428 37.25C168.028 38.6233 167.828 39.9633 167.828 41.27C167.828 41.87 167.875 42.4433 167.968 42.99C166.888 42.79 166.155 42.49 165.768 42.09C165.382 41.7033 165.188 41.2433 165.188 40.71C165.188 39.9767 165.722 38.53 166.788 36.37C166.588 35.5433 166.342 34.25 166.048 32.49C165.755 30.7167 165.455 29.1767 165.148 27.87C164.855 26.5633 164.515 25.59 164.128 24.95C164.862 24.6033 165.448 24.43 165.888 24.43C166.328 24.43 166.662 24.53 166.888 24.73C167.115 24.93 167.302 25.33 167.448 25.93C167.608 26.5167 167.722 27.0033 167.788 27.39C167.975 28.67 168.068 29.3833 168.068 29.53C168.068 29.6767 168.122 30.2767 168.228 31.33C168.335 32.37 168.415 33.0567 168.468 33.39C170.842 28.79 172.028 25.7167 172.028 24.17C173.122 24.73 173.668 25.3367 173.668 25.99Z" fill="#78350F"/>
<path d="M184.202 36.49C183.442 36.49 182.896 36.3567 182.562 36.09C182.229 35.8233 182.062 35.3767 182.062 34.75C182.062 34.1233 182.283 32.23 182.723 29.07C183.176 25.8967 183.402 23.6367 183.402 22.29C183.402 20.93 183.309 20.0433 183.122 19.63C184.482 19.7367 185.376 20.27 185.802 21.23C186.829 20.67 187.956 20.39 189.183 20.39C190.423 20.39 191.396 20.7767 192.103 21.55C192.823 22.31 193.183 23.25 193.183 24.37C193.183 25.7567 192.676 27.01 191.662 28.13C191.169 28.6633 190.529 29.0967 189.743 29.43C188.969 29.7633 188.109 29.93 187.162 29.93C186.762 29.93 186.382 29.9033 186.022 29.85L185.963 29.01C186.016 29.01 186.069 29.01 186.122 29.01C187.629 29.01 188.829 28.45 189.723 27.33C190.336 26.53 190.643 25.69 190.643 24.81C190.643 23.5167 190.116 22.6633 189.062 22.25C188.169 21.9167 187.169 21.9833 186.062 22.45V22.49C186.062 22.9967 185.869 24.6567 185.482 27.47C185.109 30.27 184.923 32.61 184.923 34.49C184.923 35.33 184.963 35.9833 185.043 36.45C184.616 36.4767 184.336 36.49 184.202 36.49Z" fill="#78350F"/>
<path d="M194.584 35.65C194.424 35.3833 194.324 35.13 194.284 34.89C194.244 34.6367 194.224 34.25 194.224 33.73C194.224 33.21 194.444 31.1633 194.884 27.59C195.338 24.0167 195.564 21.5633 195.564 20.23C195.564 18.8967 195.484 18.03 195.324 17.63C196.324 17.8967 197.004 18.3033 197.364 18.85C197.738 19.3833 197.924 20.1433 197.924 21.13C197.924 21.7167 197.731 23.6233 197.344 26.85C196.958 30.0767 196.764 32.6767 196.764 34.65C196.764 35.0767 196.791 35.6767 196.844 36.45C195.631 36.3967 194.878 36.13 194.584 35.65Z" fill="#78350F"/>
<path d="M202.581 32.37C202.581 32.9967 202.694 33.51 202.921 33.91C203.161 34.2967 203.494 34.49 203.921 34.49C204.548 34.49 205.141 34.1233 205.701 33.39C206.274 32.6567 206.728 31.7167 207.061 30.57C207.408 29.4233 207.581 28.3367 207.581 27.31C207.581 26.27 207.541 25.43 207.461 24.79C207.861 24.7633 208.141 24.75 208.301 24.75C208.981 24.75 209.494 24.8767 209.841 25.13C210.188 25.3833 210.361 25.8367 210.361 26.49C210.361 26.7433 210.201 27.7767 209.881 29.59C209.561 31.39 209.401 32.8367 209.401 33.93C209.401 35.01 209.608 35.97 210.021 36.81C209.021 36.6367 208.288 36.27 207.821 35.71C207.354 35.1367 207.121 34.3167 207.121 33.25C207.121 33.0633 207.148 32.7033 207.201 32.17C206.841 33.4367 206.201 34.4567 205.281 35.23C204.361 36.0033 203.454 36.39 202.561 36.39C201.681 36.39 200.968 36.0633 200.421 35.41C199.888 34.7433 199.621 33.8033 199.621 32.59C199.621 31.3767 199.834 30.2033 200.261 29.07C200.701 27.9233 201.354 26.9567 202.221 26.17C203.088 25.37 204.054 24.97 205.121 24.97C205.734 24.97 206.361 25.1167 207.001 25.41C205.654 25.89 204.581 26.8367 203.781 28.25C202.981 29.65 202.581 31.0233 202.581 32.37Z" fill="#78350F"/>
<path d="M217.076 26.75C217.01 27.23 216.87 28.0633 216.656 29.25C216.203 31.77 215.976 33.6367 215.976 34.85C215.976 36.0633 216.07 36.8767 216.256 37.29C215.23 37.0233 214.523 36.6167 214.136 36.07C213.75 35.51 213.556 34.7233 213.556 33.71C213.556 32.8167 213.696 31.5967 213.976 30.05C214.256 28.49 214.436 27.4367 214.516 26.89C213.823 27.01 213.083 27.2433 212.296 27.59C212.27 27.2967 212.256 27.0767 212.256 26.93C212.256 26.2233 212.47 25.7433 212.896 25.49C213.323 25.2233 213.936 25.0833 214.736 25.07C214.83 24.07 214.876 23.35 214.876 22.91C214.876 22.47 214.87 22.1033 214.856 21.81C214.856 21.5167 214.856 21.2967 214.856 21.15C215.736 21.2433 216.376 21.51 216.776 21.95C217.176 22.3767 217.376 22.99 217.376 23.79C217.376 24.11 217.343 24.5567 217.276 25.13C218.396 25.1033 219.216 24.8833 219.736 24.47C219.763 24.7367 219.776 24.9367 219.776 25.07C219.776 25.71 219.663 26.1567 219.436 26.41C219.21 26.65 218.83 26.77 218.296 26.77C217.763 26.77 217.356 26.7633 217.076 26.75Z" fill="#78350F"/>
<path d="M227.451 24.47C227.478 24.7367 227.491 24.9367 227.491 25.07C227.491 25.71 227.378 26.1567 227.151 26.41C226.924 26.65 226.524 26.77 225.951 26.77C225.391 26.77 224.958 26.7633 224.651 26.75C224.131 30.5367 223.871 33.25 223.871 34.89C223.871 35.6767 223.884 36.2433 223.911 36.59C223.951 36.95 224.044 37.5567 224.191 38.41C223.231 38.1033 222.524 37.6033 222.071 36.91C221.618 36.23 221.391 35.4233 221.391 34.49C221.391 33.09 221.591 31.0233 221.991 28.29C222.084 27.5967 222.144 27.1367 222.171 26.91C221.464 27.03 220.744 27.2567 220.011 27.59C219.984 27.2967 219.971 27.0767 219.971 26.93C219.971 26.21 220.191 25.7233 220.631 25.47C221.071 25.2167 221.704 25.0833 222.531 25.07C222.798 23.7633 223.151 22.6367 223.591 21.69C224.044 20.7433 224.538 20.03 225.071 19.55C226.084 18.6167 227.144 18.15 228.251 18.15C228.998 18.15 229.624 18.3767 230.131 18.83C230.651 19.27 230.911 19.8167 230.911 20.47C230.911 21.11 230.691 21.67 230.251 22.15C229.811 22.63 229.231 22.87 228.511 22.87C228.231 22.87 227.958 22.8233 227.691 22.73C227.904 22.57 228.111 22.29 228.311 21.89C228.524 21.49 228.631 21.1167 228.631 20.77C228.631 20.41 228.551 20.13 228.391 19.93C228.244 19.73 228.044 19.63 227.791 19.63C227.244 19.63 226.684 20.09 226.111 21.01C225.551 21.9167 225.131 23.29 224.851 25.13C226.038 25.13 226.904 24.91 227.451 24.47Z" fill="#78350F"/>
<path d="M234.655 26.13C233.788 26.13 233.015 26.7167 232.335 27.89C231.655 29.05 231.315 30.21 231.315 31.37C231.315 33.7967 231.942 35.01 233.195 35.01C234.088 35.01 234.815 34.43 235.375 33.27C235.935 32.0967 236.215 30.7833 236.215 29.33C236.215 27.1967 235.695 26.13 234.655 26.13ZM232.955 24.33C233.102 24.33 233.235 24.3767 233.355 24.47C233.488 24.55 233.555 24.6367 233.555 24.73C232.208 25.6633 231.402 26.9633 231.135 28.63C231.415 27.8833 231.755 27.2367 232.155 26.69C232.568 26.1433 232.995 25.73 233.435 25.45C234.275 24.93 235.095 24.67 235.895 24.67C236.695 24.67 237.375 25.0633 237.935 25.85C238.495 26.6367 238.775 27.69 238.775 29.01C238.775 30.49 238.475 31.85 237.875 33.09C237.208 34.49 236.262 35.4567 235.035 35.99C234.342 36.2967 233.582 36.45 232.755 36.45C231.595 36.45 230.582 36.0033 229.715 35.11C228.862 34.2033 228.435 32.91 228.435 31.23C228.435 29.5367 228.848 28.05 229.675 26.77C230.502 25.4767 231.595 24.6633 232.955 24.33Z" fill="#78350F"/>
<path d="M244.119 29.65C244.599 27.9167 245.172 26.6433 245.839 25.83C246.519 25.0033 247.146 24.59 247.719 24.59C248.306 24.59 248.746 24.81 249.039 25.25C249.332 25.6767 249.479 26.2367 249.479 26.93C249.479 27.61 249.272 28.2367 248.859 28.81C248.459 29.3833 247.906 29.67 247.199 29.67C247.012 29.67 246.792 29.6167 246.539 29.51C246.952 28.99 247.159 28.3633 247.159 27.63C247.159 27.2033 246.986 26.99 246.639 26.99C246.386 26.99 246.112 27.17 245.819 27.53C245.526 27.8767 245.246 28.3633 244.979 28.99C244.712 29.6033 244.486 30.3967 244.299 31.37C244.126 32.33 244.039 33.3567 244.039 34.45C244.039 34.5833 244.072 35.15 244.139 36.15C243.712 36.1767 243.439 36.19 243.319 36.19C242.559 36.19 242.012 36.0567 241.679 35.79C241.346 35.5233 241.179 35.0833 241.179 34.47C241.179 34.2033 241.319 33.1767 241.599 31.39C241.879 29.6033 242.019 28.1833 242.019 27.13C242.019 26.0633 241.906 25.0833 241.679 24.19C242.652 24.4967 243.332 24.9367 243.719 25.51C244.106 26.07 244.299 26.73 244.299 27.49C244.299 28.2367 244.239 28.9567 244.119 29.65Z" fill="#78350F"/>
<path d="M259.077 34.03C259.077 34.6967 259.117 35.4033 259.197 36.15C258.77 36.1767 258.49 36.19 258.357 36.19C257.61 36.19 257.07 36.0633 256.737 35.81C256.403 35.5433 256.237 35.1567 256.237 34.65C256.237 34.1433 256.377 33.1033 256.657 31.53C256.95 29.9433 257.097 28.7433 257.097 27.93C257.097 27.1033 256.83 26.69 256.297 26.69C256.003 26.69 255.683 26.87 255.337 27.23C254.99 27.5767 254.663 28.0567 254.357 28.67C254.05 29.27 253.79 30.0433 253.577 30.99C253.377 31.9367 253.277 32.85 253.277 33.73C253.277 34.5967 253.317 35.4033 253.397 36.15C252.97 36.1767 252.69 36.19 252.557 36.19C251.81 36.19 251.27 36.0633 250.937 35.81C250.603 35.5433 250.437 35.1033 250.437 34.49C250.437 34.3433 250.57 33.35 250.837 31.51C251.117 29.67 251.257 28.2167 251.257 27.15C251.257 26.07 251.143 25.0833 250.917 24.19C251.903 24.4967 252.59 24.9367 252.977 25.51C253.363 26.0833 253.557 26.79 253.557 27.63C253.557 28.0567 253.51 28.5967 253.417 29.25C253.87 27.9167 254.497 26.81 255.297 25.93C256.11 25.05 256.89 24.61 257.637 24.61C258.397 24.61 258.943 24.89 259.277 25.45C259.623 26.01 259.797 26.8167 259.797 27.87C260.303 26.8967 260.883 26.11 261.537 25.51C262.19 24.91 262.79 24.61 263.337 24.61C264.15 24.61 264.723 24.8567 265.057 25.35C265.403 25.83 265.577 26.49 265.577 27.33C265.577 28.1567 265.443 29.3233 265.177 30.83C264.923 32.3367 264.797 33.4367 264.797 34.13C264.797 34.81 264.883 35.31 265.057 35.63C265.23 35.9367 265.523 36.2033 265.937 36.43C265.763 36.4433 265.517 36.45 265.197 36.45C264.077 36.45 263.277 36.2767 262.797 35.93C262.33 35.5833 262.097 34.9767 262.097 34.11C262.097 33.6167 262.23 32.6567 262.497 31.23C262.763 29.79 262.897 28.7167 262.897 28.01C262.897 27.13 262.63 26.69 262.097 26.69C261.697 26.69 261.263 26.9833 260.797 27.57C260.343 28.1433 259.943 29.0167 259.597 30.19C259.25 31.35 259.077 32.63 259.077 34.03Z" fill="#78350F"/>
<defs>
<linearGradient id="paint0_linear_1922_6183" x1="30" y1="1.25" x2="30" y2="50" gradientUnits="userSpaceOnUse">
<stop stop-color="#F59E0B"/>
<stop offset="1" stop-color="#FDE68A"/>
</linearGradient>
</defs>
</svg>
