<svg width="516" height="100" viewBox="0 0 516 100" fill="none" xmlns="http://www.w3.org/2000/svg">
<g clip-path="url(#clip0_1922_6898)">
<path d="M514.165 6.18349H509.691V1.79822C509.691 0.805805 508.869 0 507.848 0C506.836 0 506.005 0.805805 506.005 1.8067V6.19197H501.531C500.519 6.19197 499.688 6.99778 499.688 7.99867C499.688 8.49912 499.896 8.94868 500.225 9.271C500.554 9.59332 501.021 9.79689 501.523 9.79689H505.996V14.1822C505.996 14.6826 506.204 15.1322 506.533 15.4545C506.862 15.7768 507.329 15.9804 507.831 15.9804C508.843 15.9804 509.674 15.1746 509.674 14.1737V9.78841H514.147C515.16 9.78841 515.991 8.9826 515.991 7.98171C515.991 6.98081 515.169 6.17501 514.147 6.17501L514.165 6.18349Z" fill="url(#paint0_linear_1922_6898)"/>
<path d="M475.763 6.18349H471.289V1.79822C471.289 0.805805 470.467 0 469.455 0C468.442 0 467.612 0.805805 467.612 1.8067V6.19197H463.138C462.126 6.19197 461.295 6.99778 461.295 7.99867C461.295 8.49912 461.503 8.94868 461.832 9.271C462.16 9.59332 462.628 9.79689 463.13 9.79689H467.603V14.1822C467.603 14.6826 467.811 15.1322 468.14 15.4545C468.468 15.7768 468.936 15.9804 469.438 15.9804C470.45 15.9804 471.281 15.1746 471.281 14.1737V9.78841H475.754C476.767 9.78841 477.597 8.9826 477.597 7.98171C477.597 6.98081 476.775 6.17501 475.754 6.17501L475.763 6.18349Z" fill="url(#paint1_linear_1922_6898)"/>
<path d="M437.37 6.18349H432.896V1.79822C432.896 0.805805 432.074 0 431.053 0C430.041 0 429.21 0.805805 429.21 1.8067V6.19197H424.736C423.724 6.19197 422.893 6.99778 422.893 7.99867C422.893 8.49912 423.101 8.94868 423.43 9.271C423.758 9.59332 424.226 9.79689 424.728 9.79689H429.201V14.1822C429.201 14.6826 429.409 15.1322 429.738 15.4545C430.066 15.7768 430.534 15.9804 431.036 15.9804C432.048 15.9804 432.879 15.1746 432.879 14.1737V9.78841H437.352C438.365 9.78841 439.195 8.9826 439.195 7.98171C439.195 6.98081 438.373 6.17501 437.352 6.17501L437.37 6.18349Z" fill="url(#paint2_linear_1922_6898)"/>
<path d="M398.968 6.18349H394.494V1.79822C394.503 0.805805 393.672 0 392.66 0C391.647 0 390.816 0.805805 390.816 1.8067V6.19197H386.343C385.331 6.19197 384.5 6.99778 384.5 7.99867C384.5 8.49912 384.707 8.94868 385.036 9.271C385.365 9.59332 385.832 9.79689 386.334 9.79689H390.808V14.1822C390.808 14.6826 391.016 15.1322 391.344 15.4545C391.673 15.7768 392.14 15.9804 392.642 15.9804C393.655 15.9804 394.485 15.1746 394.485 14.1737V9.78841H398.959C399.971 9.78841 400.802 8.9826 400.802 7.98171C400.802 6.98081 399.98 6.17501 398.959 6.17501L398.968 6.18349Z" fill="url(#paint3_linear_1922_6898)"/>
<path d="M360.574 6.18349H356.101V1.79822C356.101 0.805805 355.279 0 354.266 0C353.254 0 352.423 0.805805 352.423 1.8067V6.19197H347.95C346.937 6.19197 346.107 6.99778 346.107 7.99867C346.107 8.49912 346.314 8.94868 346.643 9.271C346.972 9.59332 347.439 9.79689 347.941 9.79689H352.415V14.1822C352.415 14.6826 352.622 15.1322 352.951 15.4545C353.28 15.7768 353.747 15.9804 354.249 15.9804C355.261 15.9804 356.092 15.1746 356.092 14.1737V9.78841H360.566C361.578 9.78841 362.409 8.9826 362.409 7.98171C362.409 6.98081 361.587 6.17501 360.566 6.17501L360.574 6.18349Z" fill="url(#paint4_linear_1922_6898)"/>
<path d="M322.172 6.18349H317.699V1.79822C317.707 0.805805 316.885 0 315.864 0C314.852 0 314.021 0.805805 314.021 1.8067V6.19197H309.548C308.535 6.19197 307.705 6.99778 307.705 7.99867C307.705 8.49912 307.912 8.94868 308.241 9.271C308.57 9.59332 309.037 9.79689 309.539 9.79689H314.013V14.1822C314.013 14.6826 314.22 15.1322 314.549 15.4545C314.878 15.7768 315.345 15.9804 315.847 15.9804C316.859 15.9804 317.69 15.1746 317.69 14.1737V9.78841H322.164C323.176 9.78841 324.007 8.9826 324.007 7.98171C324.007 6.98081 323.185 6.17501 322.164 6.17501L322.172 6.18349Z" fill="url(#paint5_linear_1922_6898)"/>
<path d="M283.779 6.18349H279.305V1.79822C279.305 0.805805 278.483 0 277.471 0C276.459 0 275.628 0.805805 275.628 1.8067V6.19197H271.154C270.142 6.19197 269.311 6.99778 269.311 7.99867C269.311 8.49912 269.519 8.94868 269.848 9.271C270.177 9.59332 270.644 9.79689 271.146 9.79689H275.619V14.1822C275.619 14.6826 275.827 15.1322 276.156 15.4545C276.485 15.7768 276.952 15.9804 277.454 15.9804C278.466 15.9804 279.297 15.1746 279.297 14.1737V9.78841H283.77C284.783 9.78841 285.613 8.9826 285.613 7.98171C285.613 6.98081 284.791 6.17501 283.77 6.17501L283.779 6.18349Z" fill="url(#paint6_linear_1922_6898)"/>
<path d="M245.386 6.18349H240.912V1.79822C240.912 0.805805 240.09 0 239.069 0C238.057 0 237.226 0.805805 237.226 1.8067V6.19197H232.752C231.74 6.19197 230.909 6.99778 230.909 7.99867C230.909 8.49912 231.117 8.94868 231.446 9.271C231.775 9.59332 232.242 9.79689 232.744 9.79689H237.217V14.1822C237.217 14.6826 237.425 15.1322 237.754 15.4545C238.083 15.7768 238.55 15.9804 239.052 15.9804C240.064 15.9804 240.895 15.1746 240.895 14.1737V9.78841H245.368C246.381 9.78841 247.212 8.9826 247.212 7.98171C247.212 6.98081 246.389 6.17501 245.368 6.17501L245.386 6.18349Z" fill="url(#paint7_linear_1922_6898)"/>
<path d="M206.984 6.18349H202.51V1.79822C202.519 0.805805 201.688 0 200.676 0C199.663 0 198.833 0.805805 198.833 1.8067V6.19197H194.359C193.347 6.19197 192.516 6.99778 192.516 7.99867C192.516 8.49912 192.724 8.94868 193.052 9.271C193.381 9.59332 193.848 9.79689 194.35 9.79689H198.824V14.1822C198.824 14.6826 199.032 15.1322 199.36 15.4545C199.689 15.7768 200.157 15.9804 200.658 15.9804C201.671 15.9804 202.501 15.1746 202.501 14.1737V9.78841H206.975C207.988 9.78841 208.818 8.9826 208.818 7.98171C208.818 6.98081 207.996 6.17501 206.975 6.17501L206.984 6.18349Z" fill="url(#paint8_linear_1922_6898)"/>
<path d="M168.59 6.18349H164.117V1.79822C164.117 0.805805 163.295 0 162.282 0C161.27 0 160.439 0.805805 160.439 1.8067V6.19197H155.966C154.953 6.19197 154.123 6.99778 154.123 7.99867C154.123 8.49912 154.33 8.94868 154.659 9.271C154.988 9.59332 155.455 9.79689 155.957 9.79689H160.431V14.1822C160.431 14.6826 160.638 15.1322 160.967 15.4545C161.296 15.7768 161.763 15.9804 162.265 15.9804C163.278 15.9804 164.108 15.1746 164.108 14.1737V9.78841H168.582C169.594 9.78841 170.425 8.9826 170.425 7.98171C170.425 6.98081 169.603 6.17501 168.582 6.17501L168.59 6.18349Z" fill="url(#paint9_linear_1922_6898)"/>
<path d="M130.188 6.18349H125.715V1.79822C125.724 0.805805 124.901 0 123.88 0C122.868 0 122.037 0.805805 122.037 1.8067V6.19197H117.564C116.551 6.19197 115.721 6.99778 115.721 7.99867C115.721 8.49912 115.928 8.94868 116.257 9.271C116.586 9.59332 117.053 9.79689 117.555 9.79689H122.029V14.1822C122.029 14.6826 122.236 15.1322 122.565 15.4545C122.894 15.7768 123.361 15.9804 123.863 15.9804C124.876 15.9804 125.706 15.1746 125.706 14.1737V9.78841H130.18C131.192 9.78841 132.023 8.9826 132.023 7.98171C132.023 6.98081 131.201 6.17501 130.18 6.17501L130.188 6.18349Z" fill="url(#paint10_linear_1922_6898)"/>
<path d="M91.7952 6.18349H87.3216V1.79822C87.3216 0.805805 86.4995 0 85.4871 0C84.4747 0 83.6441 0.805805 83.6441 1.8067V6.19197H79.1705C78.1581 6.19197 77.3274 6.99778 77.3274 7.99867C77.3274 8.49912 77.535 8.94868 77.8639 9.271C78.1927 9.59332 78.6599 9.79689 79.1618 9.79689H83.6354V14.1822C83.6354 14.6826 83.8431 15.1322 84.1719 15.4545C84.5007 15.7768 84.968 15.9804 85.4698 15.9804C86.4822 15.9804 87.3129 15.1746 87.3129 14.1737V9.78841H91.7865C92.7989 9.78841 93.6296 8.9826 93.6296 7.98171C93.6296 6.98081 92.8076 6.17501 91.7865 6.17501L91.7952 6.18349Z" fill="url(#paint11_linear_1922_6898)"/>
<path d="M53.4018 6.18349H48.9282V1.79822C48.9282 0.805805 48.1062 0 47.0852 0C46.0728 0 45.2421 0.805805 45.2421 1.8067V6.19197H40.7685C39.7561 6.19197 38.9254 6.99778 38.9254 7.99867C38.9254 8.49912 39.1331 8.94868 39.4619 9.271C39.7907 9.59332 40.258 9.79689 40.7598 9.79689H45.2334V14.1822C45.2334 14.6826 45.4411 15.1322 45.7699 15.4545C46.0987 15.7768 46.566 15.9804 47.0679 15.9804C48.0803 15.9804 48.9109 15.1746 48.9109 14.1737V9.78841H53.3845C54.3969 9.78841 55.2276 8.9826 55.2276 7.98171C55.2276 6.98081 54.4056 6.17501 53.3845 6.17501L53.4018 6.18349Z" fill="url(#paint12_linear_1922_6898)"/>
<path d="M14.9999 6.18349H10.5263V1.79822C10.5263 0.805805 9.70426 0 8.69186 0C7.67946 0 6.84877 0.805805 6.84877 1.8067V6.19197H2.37518C1.36278 6.18349 0.540743 6.9893 0.540743 7.99019C0.540743 8.49064 0.748415 8.94019 1.07723 9.26252C1.40604 9.58484 1.8733 9.78841 2.37518 9.78841H6.84877V14.1737C6.84877 14.6741 7.05644 15.1237 7.38526 15.446C7.71407 15.7683 8.18133 15.9719 8.68321 15.9719C9.69561 15.9719 10.5263 15.1661 10.5263 14.1652V9.77993H14.9999C16.0123 9.77993 16.843 8.97412 16.843 7.97323C16.843 6.97233 16.0209 6.16653 14.9999 6.16653V6.18349Z" fill="url(#paint13_linear_1922_6898)"/>
<path d="M514.165 45.9054H509.691V41.5202C509.691 40.5277 508.869 39.7135 507.848 39.7135C506.836 39.7135 506.005 40.5193 506.005 41.5202V45.9054H501.531C500.519 45.9054 499.688 46.7112 499.688 47.7121C499.688 48.2126 499.896 48.6621 500.225 48.9845C500.554 49.3068 501.021 49.5103 501.523 49.5103H505.996V53.8956C505.996 54.3961 506.204 54.8456 506.533 55.1679C506.862 55.4903 507.329 55.6938 507.831 55.6938C508.843 55.6938 509.674 54.888 509.674 53.8871V49.5019H514.147C515.16 49.5019 515.991 48.6961 515.991 47.6952C515.991 46.6943 515.169 45.8885 514.147 45.8885L514.165 45.9054Z" fill="url(#paint14_linear_1922_6898)"/>
<path d="M475.763 45.9054H471.289V41.5202C471.289 40.5277 470.467 39.7135 469.446 39.7135C468.434 39.7135 467.603 40.5193 467.603 41.5202V45.9054H463.13C462.117 45.9054 461.286 46.7112 461.286 47.7121C461.286 48.2126 461.494 48.6621 461.823 48.9845C462.152 49.3068 462.619 49.5103 463.121 49.5103H467.595V53.8956C467.595 54.3961 467.802 54.8456 468.131 55.1679C468.46 55.4903 468.927 55.6938 469.429 55.6938C470.441 55.6938 471.272 54.888 471.272 53.8871V49.5019H475.746C476.758 49.5019 477.589 48.6961 477.589 47.6952C477.589 46.6943 476.767 45.8885 475.746 45.8885L475.763 45.9054Z" fill="url(#paint15_linear_1922_6898)"/>
<path d="M437.37 45.9054H432.896V41.5202C432.896 40.5277 432.074 39.7135 431.053 39.7135C430.041 39.7135 429.21 40.5193 429.21 41.5202V45.9054H424.736C423.724 45.9054 422.893 46.7112 422.893 47.7121C422.893 48.2126 423.101 48.6621 423.43 48.9845C423.758 49.3068 424.226 49.5103 424.728 49.5103H429.201V53.8956C429.201 54.3961 429.409 54.8456 429.738 55.1679C430.066 55.4903 430.534 55.6938 431.036 55.6938C432.048 55.6938 432.879 54.888 432.879 53.8871V49.5019H437.352C438.365 49.5019 439.195 48.6961 439.195 47.6952C439.195 46.6943 438.373 45.8885 437.352 45.8885L437.37 45.9054Z" fill="url(#paint16_linear_1922_6898)"/>
<path d="M398.968 45.9054H394.494V41.5202C394.494 40.5277 393.672 39.7135 392.651 39.7135C391.639 39.7135 390.808 40.5193 390.808 41.5202V45.9054H386.334C385.322 45.9054 384.491 46.7112 384.491 47.7121C384.491 48.2126 384.699 48.6621 385.028 48.9845C385.356 49.3068 385.824 49.5103 386.326 49.5103H390.799V53.8956C390.799 54.3961 391.007 54.8456 391.336 55.1679C391.664 55.4903 392.132 55.6938 392.634 55.6938C393.646 55.6938 394.477 54.888 394.477 53.8871V49.5019H398.95C399.963 49.5019 400.793 48.6961 400.793 47.6952C400.793 46.6943 399.971 45.8885 398.95 45.8885L398.968 45.9054Z" fill="url(#paint17_linear_1922_6898)"/>
<path d="M360.574 45.9054H356.101V41.5202C356.101 40.5277 355.279 39.7135 354.258 39.7135C353.245 39.7135 352.415 40.5193 352.415 41.5202V45.9054H347.941C346.929 45.9054 346.098 46.7112 346.098 47.7121C346.098 48.2126 346.305 48.6621 346.634 48.9845C346.963 49.3068 347.43 49.5103 347.932 49.5103H352.406V53.8956C352.406 54.3961 352.614 54.8456 352.942 55.1679C353.271 55.4903 353.738 55.6938 354.24 55.6938C355.253 55.6938 356.083 54.888 356.083 53.8871V49.5019H360.557C361.569 49.5019 362.4 48.6961 362.4 47.6952C362.4 46.6943 361.578 45.8885 360.557 45.8885L360.574 45.9054Z" fill="url(#paint18_linear_1922_6898)"/>
<path d="M322.172 45.9054H317.699V41.5202C317.699 40.5277 316.877 39.7135 315.856 39.7135C314.843 39.7135 314.013 40.5193 314.013 41.5202V45.9054H309.539C308.527 45.9054 307.696 46.7112 307.696 47.7121C307.696 48.2126 307.904 48.6621 308.232 48.9845C308.561 49.3068 309.028 49.5103 309.53 49.5103H314.004V53.8956C314.004 54.3961 314.212 54.8456 314.54 55.1679C314.869 55.4903 315.336 55.6938 315.838 55.6938C316.851 55.6938 317.681 54.888 317.681 53.8871V49.5019H322.155C323.167 49.5019 323.998 48.6961 323.998 47.6952C323.998 46.6943 323.176 45.8885 322.155 45.8885L322.172 45.9054Z" fill="url(#paint19_linear_1922_6898)"/>
<path d="M283.779 45.9054H279.305V41.5202C279.305 40.5277 278.483 39.7135 277.462 39.7135C276.45 39.7135 275.619 40.5193 275.619 41.5202V45.9054H271.146C270.133 45.9054 269.303 46.7112 269.303 47.7121C269.303 48.2126 269.51 48.6621 269.839 48.9845C270.168 49.3068 270.635 49.5103 271.137 49.5103H275.611V53.8956C275.611 54.3961 275.818 54.8456 276.147 55.1679C276.476 55.4903 276.943 55.6938 277.445 55.6938C278.457 55.6938 279.288 54.888 279.288 53.8871V49.5019H283.762C284.774 49.5019 285.605 48.6961 285.605 47.6952C285.605 46.6943 284.783 45.8885 283.762 45.8885L283.779 45.9054Z" fill="url(#paint20_linear_1922_6898)"/>
<path d="M245.386 45.9054H240.912V41.5202C240.912 40.5277 240.09 39.7135 239.069 39.7135C238.057 39.7135 237.226 40.5193 237.226 41.5202V45.9054H232.752C231.74 45.9054 230.909 46.7112 230.909 47.7121C230.909 48.2126 231.117 48.6621 231.446 48.9845C231.775 49.3068 232.242 49.5103 232.744 49.5103H237.217V53.8956C237.217 54.3961 237.425 54.8456 237.754 55.1679C238.083 55.4903 238.55 55.6938 239.052 55.6938C240.064 55.6938 240.895 54.888 240.895 53.8871V49.5019H245.368C246.381 49.5019 247.212 48.6961 247.212 47.6952C247.212 46.6943 246.389 45.8885 245.368 45.8885L245.386 45.9054Z" fill="url(#paint21_linear_1922_6898)"/>
<path d="M206.984 45.9054H202.51V41.5202C202.51 40.5277 201.688 39.7135 200.667 39.7135C199.655 39.7135 198.824 40.5193 198.824 41.5202V45.9054H194.35C193.338 45.9054 192.507 46.7112 192.507 47.7121C192.507 48.2126 192.715 48.6621 193.044 48.9845C193.373 49.3068 193.84 49.5103 194.342 49.5103H198.815V53.8956C198.815 54.3961 199.023 54.8456 199.352 55.1679C199.681 55.4903 200.148 55.6938 200.65 55.6938C201.662 55.6938 202.493 54.888 202.493 53.8871V49.5019H206.966C207.979 49.5019 208.81 48.6961 208.81 47.6952C208.81 46.6943 207.987 45.8885 206.966 45.8885L206.984 45.9054Z" fill="url(#paint22_linear_1922_6898)"/>
<path d="M168.59 45.9054H164.117V41.5202C164.117 40.5277 163.295 39.7135 162.274 39.7135C161.261 39.7135 160.431 40.5193 160.431 41.5202V45.9054H155.957C154.945 45.9054 154.114 46.7112 154.114 47.7121C154.114 48.2126 154.322 48.6621 154.65 48.9845C154.979 49.3068 155.447 49.5103 155.948 49.5103H160.422V53.8956C160.422 54.3961 160.63 54.8456 160.959 55.1679C161.287 55.4903 161.755 55.6938 162.256 55.6938C163.269 55.6938 164.1 54.888 164.1 53.8871V49.5019H168.573C169.586 49.5019 170.416 48.6961 170.416 47.6952C170.416 46.6943 169.594 45.8885 168.573 45.8885L168.59 45.9054Z" fill="url(#paint23_linear_1922_6898)"/>
<path d="M130.188 45.9054H125.715V41.5202C125.715 40.5277 124.893 39.7135 123.872 39.7135C122.859 39.7135 122.029 40.5193 122.029 41.5202V45.9054H117.555C116.543 45.9054 115.712 46.7112 115.712 47.7121C115.712 48.2126 115.92 48.6621 116.249 48.9845C116.577 49.3068 117.045 49.5103 117.546 49.5103H122.02V53.8956C122.02 54.3961 122.228 54.8456 122.557 55.1679C122.885 55.4903 123.353 55.6938 123.854 55.6938C124.867 55.6938 125.698 54.888 125.698 53.8871V49.5019H130.171C131.184 49.5019 132.014 48.6961 132.014 47.6952C132.014 46.6943 131.192 45.8885 130.171 45.8885L130.188 45.9054Z" fill="url(#paint24_linear_1922_6898)"/>
<path d="M91.7952 45.9054H87.3216V41.5202C87.3216 40.5277 86.4995 39.7135 85.4785 39.7135C84.4661 39.7135 83.6354 40.5193 83.6354 41.5202V45.9054H79.1618C78.1494 45.9054 77.3187 46.7112 77.3187 47.7121C77.3187 48.2126 77.5264 48.6621 77.8552 48.9845C78.184 49.3068 78.6513 49.5103 79.1532 49.5103H83.6267V53.8956C83.6267 54.3961 83.8344 54.8456 84.1632 55.1679C84.492 55.4903 84.9593 55.6938 85.4612 55.6938C86.4736 55.6938 87.3043 54.888 87.3043 53.8871V49.5019H91.7779C92.7903 49.5019 93.6209 48.6961 93.6209 47.6952C93.6209 46.6943 92.7989 45.8885 91.7779 45.8885L91.7952 45.9054Z" fill="url(#paint25_linear_1922_6898)"/>
<path d="M53.4018 45.9054H48.9282V41.5202C48.9282 40.5277 48.1062 39.7135 47.0852 39.7135C46.0728 39.7135 45.2421 40.5193 45.2421 41.5202V45.9054H40.7685C39.7561 45.9054 38.9254 46.7112 38.9254 47.7121C38.9254 48.2126 39.1331 48.6621 39.4619 48.9845C39.7907 49.3068 40.258 49.5103 40.7598 49.5103H45.2334V53.8956C45.2334 54.3961 45.4411 54.8456 45.7699 55.1679C46.0987 55.4903 46.566 55.6938 47.0679 55.6938C48.0803 55.6938 48.9109 54.888 48.9109 53.8871V49.5019H53.3845C54.3969 49.5019 55.2276 48.6961 55.2276 47.6952C55.2276 46.6943 54.4056 45.8885 53.3845 45.8885L53.4018 45.9054Z" fill="url(#paint26_linear_1922_6898)"/>
<path d="M14.9999 45.9054H10.5263V41.5202C10.5263 40.5277 9.70426 39.7135 8.68321 39.7135C7.67081 39.7135 6.84012 40.5193 6.84012 41.5202V45.9054H2.36652C1.36278 45.9054 0.540743 46.7112 0.540743 47.7036C0.540743 48.2041 0.748415 48.6536 1.07723 48.976C1.40604 49.2983 1.8733 49.5019 2.37518 49.5019H6.84877V53.8871C6.84877 54.3876 7.05644 54.8371 7.38526 55.1595C7.71407 55.4818 8.18133 55.6854 8.68321 55.6854C9.69561 55.6854 10.5263 54.8796 10.5263 53.8787V49.4934H14.9999C16.0123 49.4934 16.843 48.6876 16.843 47.6867C16.843 46.6858 16.0209 45.88 14.9999 45.88V45.9054Z" fill="url(#paint27_linear_1922_6898)"/>
<path d="M514.165 85.6189H509.691V81.2336C509.691 80.2412 508.869 79.4269 507.848 79.4269C506.836 79.4269 506.005 80.2327 506.005 81.2336V85.6189H501.531C500.519 85.6189 499.688 86.4247 499.688 87.4256C499.688 87.926 499.896 88.3756 500.225 88.6979C500.554 89.0202 501.021 89.2238 501.523 89.2238H505.996V93.6091C505.996 94.1095 506.204 94.5591 506.533 94.8814C506.862 95.2037 507.329 95.4073 507.831 95.4073C508.843 95.4073 509.674 94.6015 509.674 93.6006V89.2153H514.147C515.16 89.2153 515.991 88.4095 515.991 87.4086C515.991 86.4077 515.169 85.6019 514.147 85.6019L514.165 85.6189Z" fill="url(#paint28_linear_1922_6898)"/>
<path d="M475.763 85.6189H471.289V81.2336C471.289 80.2412 470.467 79.4269 469.446 79.4269C468.434 79.4269 467.603 80.2327 467.603 81.2336V85.6189H463.13C462.117 85.6189 461.286 86.4247 461.286 87.4256C461.286 87.926 461.494 88.3756 461.823 88.6979C462.152 89.0202 462.619 89.2238 463.121 89.2238H467.595V93.6091C467.595 94.1095 467.802 94.5591 468.131 94.8814C468.46 95.2037 468.927 95.4073 469.429 95.4073C470.441 95.4073 471.272 94.6015 471.272 93.6006V89.2153H475.746C476.758 89.2153 477.589 88.4095 477.589 87.4086C477.589 86.4077 476.767 85.6019 475.746 85.6019L475.763 85.6189Z" fill="url(#paint29_linear_1922_6898)"/>
<path d="M437.37 85.6189H432.896V81.2336C432.896 80.2412 432.074 79.4269 431.053 79.4269C430.041 79.4269 429.21 80.2327 429.21 81.2336V85.6189H424.736C423.724 85.6189 422.893 86.4247 422.893 87.4256C422.893 87.926 423.101 88.3756 423.43 88.6979C423.758 89.0202 424.226 89.2238 424.728 89.2238H429.201V93.6091C429.201 94.1095 429.409 94.5591 429.738 94.8814C430.066 95.2037 430.534 95.4073 431.036 95.4073C432.048 95.4073 432.879 94.6015 432.879 93.6006V89.2153H437.352C438.365 89.2153 439.195 88.4095 439.195 87.4086C439.195 86.4077 438.373 85.6019 437.352 85.6019L437.37 85.6189Z" fill="url(#paint30_linear_1922_6898)"/>
<path d="M398.968 85.6189H394.494V81.2336C394.494 80.2412 393.672 79.4269 392.651 79.4269C391.639 79.4269 390.808 80.2327 390.808 81.2336V85.6189H386.334C385.322 85.6189 384.491 86.4247 384.491 87.4256C384.491 87.926 384.699 88.3756 385.028 88.6979C385.356 89.0202 385.824 89.2238 386.326 89.2238H390.799V93.6091C390.799 94.1095 391.007 94.5591 391.336 94.8814C391.664 95.2037 392.132 95.4073 392.634 95.4073C393.646 95.4073 394.477 94.6015 394.477 93.6006V89.2153H398.95C399.963 89.2153 400.793 88.4095 400.793 87.4086C400.793 86.4077 399.971 85.6019 398.95 85.6019L398.968 85.6189Z" fill="url(#paint31_linear_1922_6898)"/>
<path d="M360.574 85.6189H356.101V81.2336C356.101 80.2412 355.279 79.4269 354.258 79.4269C353.245 79.4269 352.415 80.2327 352.415 81.2336V85.6189H347.941C346.929 85.6189 346.098 86.4247 346.098 87.4256C346.098 87.926 346.305 88.3756 346.634 88.6979C346.963 89.0202 347.43 89.2238 347.932 89.2238H352.406V93.6091C352.406 94.1095 352.614 94.5591 352.942 94.8814C353.271 95.2037 353.738 95.4073 354.24 95.4073C355.253 95.4073 356.083 94.6015 356.083 93.6006V89.2153H360.557C361.569 89.2153 362.4 88.4095 362.4 87.4086C362.4 86.4077 361.578 85.6019 360.557 85.6019L360.574 85.6189Z" fill="url(#paint32_linear_1922_6898)"/>
<path d="M322.172 85.6189H317.699V81.2336C317.699 80.2412 316.877 79.4269 315.856 79.4269C314.843 79.4269 314.013 80.2327 314.013 81.2336V85.6189H309.539C308.527 85.6189 307.696 86.4247 307.696 87.4256C307.696 87.926 307.904 88.3756 308.232 88.6979C308.561 89.0202 309.028 89.2238 309.53 89.2238H314.004V93.6091C314.004 94.1095 314.212 94.5591 314.54 94.8814C314.869 95.2037 315.336 95.4073 315.838 95.4073C316.851 95.4073 317.681 94.6015 317.681 93.6006V89.2153H322.155C323.167 89.2153 323.998 88.4095 323.998 87.4086C323.998 86.4077 323.176 85.6019 322.155 85.6019L322.172 85.6189Z" fill="url(#paint33_linear_1922_6898)"/>
<path d="M283.779 85.6189H279.305V81.2336C279.305 80.2412 278.483 79.4269 277.462 79.4269C276.45 79.4269 275.619 80.2327 275.619 81.2336V85.6189H271.146C270.133 85.6189 269.303 86.4247 269.303 87.4256C269.303 87.926 269.51 88.3756 269.839 88.6979C270.168 89.0202 270.635 89.2238 271.137 89.2238H275.611V93.6091C275.611 94.1095 275.818 94.5591 276.147 94.8814C276.476 95.2037 276.943 95.4073 277.445 95.4073C278.457 95.4073 279.288 94.6015 279.288 93.6006V89.2153H283.762C284.774 89.2153 285.605 88.4095 285.605 87.4086C285.605 86.4077 284.783 85.6019 283.762 85.6019L283.779 85.6189Z" fill="url(#paint34_linear_1922_6898)"/>
<path d="M245.386 85.6189H240.912V81.2336C240.912 80.2412 240.09 79.4269 239.069 79.4269C238.057 79.4269 237.226 80.2327 237.226 81.2336V85.6189H232.752C231.74 85.6189 230.909 86.4247 230.909 87.4256C230.909 87.926 231.117 88.3756 231.446 88.6979C231.775 89.0202 232.242 89.2238 232.744 89.2238H237.217V93.6091C237.217 94.1095 237.425 94.5591 237.754 94.8814C238.083 95.2037 238.55 95.4073 239.052 95.4073C240.064 95.4073 240.895 94.6015 240.895 93.6006V89.2153H245.368C246.381 89.2153 247.212 88.4095 247.212 87.4086C247.212 86.4077 246.389 85.6019 245.368 85.6019L245.386 85.6189Z" fill="url(#paint35_linear_1922_6898)"/>
<path d="M206.984 85.6189H202.51V81.2336C202.51 80.2412 201.688 79.4269 200.667 79.4269C199.655 79.4269 198.824 80.2327 198.824 81.2336V85.6189H194.35C193.338 85.6189 192.507 86.4247 192.507 87.4256C192.507 87.926 192.715 88.3756 193.044 88.6979C193.373 89.0202 193.84 89.2238 194.342 89.2238H198.815V93.6091C198.815 94.1095 199.023 94.5591 199.352 94.8814C199.681 95.2037 200.148 95.4073 200.65 95.4073C201.662 95.4073 202.493 94.6015 202.493 93.6006V89.2153H206.966C207.979 89.2153 208.81 88.4095 208.81 87.4086C208.81 86.4077 207.987 85.6019 206.966 85.6019L206.984 85.6189Z" fill="url(#paint36_linear_1922_6898)"/>
<path d="M168.59 85.6189H164.117V81.2336C164.117 80.2412 163.295 79.4269 162.274 79.4269C161.261 79.4269 160.431 80.2327 160.431 81.2336V85.6189H155.957C154.945 85.6189 154.114 86.4247 154.114 87.4256C154.114 87.926 154.322 88.3756 154.65 88.6979C154.979 89.0202 155.447 89.2238 155.948 89.2238H160.422V93.6091C160.422 94.1095 160.63 94.5591 160.959 94.8814C161.287 95.2037 161.755 95.4073 162.256 95.4073C163.269 95.4073 164.1 94.6015 164.1 93.6006V89.2153H168.573C169.586 89.2153 170.416 88.4095 170.416 87.4086C170.416 86.4077 169.594 85.6019 168.573 85.6019L168.59 85.6189Z" fill="url(#paint37_linear_1922_6898)"/>
<path d="M130.188 85.6189H125.715V81.2336C125.715 80.2412 124.893 79.4269 123.872 79.4269C122.859 79.4269 122.029 80.2327 122.029 81.2336V85.6189H117.555C116.543 85.6189 115.712 86.4247 115.712 87.4256C115.712 87.926 115.92 88.3756 116.249 88.6979C116.577 89.0202 117.045 89.2238 117.546 89.2238H122.02V93.6091C122.02 94.1095 122.228 94.5591 122.557 94.8814C122.885 95.2037 123.353 95.4073 123.854 95.4073C124.867 95.4073 125.698 94.6015 125.698 93.6006V89.2153H130.171C131.184 89.2153 132.014 88.4095 132.014 87.4086C132.014 86.4077 131.192 85.6019 130.171 85.6019L130.188 85.6189Z" fill="url(#paint38_linear_1922_6898)"/>
<path d="M91.7952 85.6189H87.3216V81.2336C87.3216 80.2412 86.4995 79.4269 85.4785 79.4269C84.4661 79.4269 83.6354 80.2327 83.6354 81.2336V85.6189H79.1618C78.1494 85.6189 77.3187 86.4247 77.3187 87.4256C77.3187 87.926 77.5264 88.3756 77.8552 88.6979C78.184 89.0202 78.6513 89.2238 79.1532 89.2238H83.6267V93.6091C83.6267 94.1095 83.8344 94.5591 84.1632 94.8814C84.492 95.2037 84.9593 95.4073 85.4612 95.4073C86.4736 95.4073 87.3043 94.6015 87.3043 93.6006V89.2153H91.7779C92.7903 89.2153 93.6209 88.4095 93.6209 87.4086C93.6209 86.4077 92.7989 85.6019 91.7779 85.6019L91.7952 85.6189Z" fill="url(#paint39_linear_1922_6898)"/>
<path d="M53.4018 85.6189H48.9282V81.2336C48.9282 80.2412 48.1062 79.4269 47.0852 79.4269C46.0728 79.4269 45.2421 80.2327 45.2421 81.2336V85.6189H40.7685C39.7561 85.6189 38.9254 86.4247 38.9254 87.4256C38.9254 87.926 39.1331 88.3756 39.4619 88.6979C39.7907 89.0202 40.258 89.2238 40.7598 89.2238H45.2334V93.6091C45.2334 94.1095 45.4411 94.5591 45.7699 94.8814C46.0987 95.2037 46.566 95.4073 47.0679 95.4073C48.0803 95.4073 48.9109 94.6015 48.9109 93.6006V89.2153H53.3845C54.3969 89.2153 55.2276 88.4095 55.2276 87.4086C55.2276 86.4077 54.4056 85.6019 53.3845 85.6019L53.4018 85.6189Z" fill="url(#paint40_linear_1922_6898)"/>
<path d="M14.9999 85.6189H10.5263V81.2336C10.5263 80.2412 9.70426 79.4269 8.68321 79.4269C7.67081 79.4269 6.84012 80.2327 6.84012 81.2336V85.6189H2.36652C1.36278 85.6189 0.540743 86.4247 0.540743 87.4256C0.540743 87.926 0.748415 88.3756 1.07723 88.6979C1.40604 89.0202 1.8733 89.2238 2.37518 89.2238H6.84877V93.6091C6.84877 94.1095 7.05644 94.5591 7.38526 94.8814C7.71407 95.2037 8.18133 95.4073 8.68321 95.4073C9.69561 95.4073 10.5263 94.6015 10.5263 93.6006V89.2153H14.9999C16.0123 89.2153 16.843 88.4095 16.843 87.4086C16.843 86.4077 16.0209 85.6019 14.9999 85.6019V85.6189Z" fill="url(#paint41_linear_1922_6898)"/>
<path d="M514.165 125.341H509.691V120.956C509.691 119.963 508.869 119.149 507.848 119.149C506.836 119.149 506.005 119.955 506.005 120.956V125.341H501.531C500.519 125.341 499.688 126.147 499.688 127.148C499.688 127.648 499.896 128.098 500.225 128.42C500.554 128.742 501.021 128.946 501.523 128.946H505.996V133.331C505.996 133.831 506.204 134.281 506.533 134.603C506.862 134.926 507.329 135.129 507.831 135.129C508.843 135.129 509.674 134.323 509.674 133.323V128.937H514.147C515.16 128.937 515.991 128.131 515.991 127.131C515.991 126.13 515.169 125.324 514.147 125.324L514.165 125.341Z" fill="url(#paint42_linear_1922_6898)"/>
<path d="M475.763 125.341H471.289V120.956C471.289 119.963 470.467 119.149 469.446 119.149C468.434 119.149 467.603 119.955 467.603 120.956V125.341H463.13C462.117 125.341 461.286 126.147 461.286 127.148C461.286 127.648 461.494 128.098 461.823 128.42C462.152 128.742 462.619 128.946 463.121 128.946H467.595V133.331C467.595 133.831 467.802 134.281 468.131 134.603C468.46 134.926 468.927 135.129 469.429 135.129C470.441 135.129 471.272 134.323 471.272 133.323V128.937H475.746C476.758 128.937 477.589 128.131 477.589 127.131C477.589 126.13 476.767 125.324 475.746 125.324L475.763 125.341Z" fill="url(#paint43_linear_1922_6898)"/>
<path d="M437.37 125.341H432.896V120.956C432.896 119.963 432.074 119.149 431.053 119.149C430.041 119.149 429.21 119.955 429.21 120.956V125.341H424.736C423.724 125.341 422.893 126.147 422.893 127.148C422.893 127.648 423.101 128.098 423.43 128.42C423.758 128.742 424.226 128.946 424.728 128.946H429.201V133.331C429.201 133.831 429.409 134.281 429.738 134.603C430.066 134.926 430.534 135.129 431.036 135.129C432.048 135.129 432.879 134.323 432.879 133.323V128.937H437.352C438.365 128.937 439.195 128.131 439.195 127.131C439.195 126.13 438.373 125.324 437.352 125.324L437.37 125.341Z" fill="url(#paint44_linear_1922_6898)"/>
<path d="M398.968 125.341H394.494V120.956C394.494 119.963 393.672 119.149 392.651 119.149C391.639 119.149 390.808 119.955 390.808 120.956V125.341H386.334C385.322 125.341 384.491 126.147 384.491 127.148C384.491 127.648 384.699 128.098 385.028 128.42C385.356 128.742 385.824 128.946 386.326 128.946H390.799V133.331C390.799 133.831 391.007 134.281 391.336 134.603C391.664 134.926 392.132 135.129 392.634 135.129C393.646 135.129 394.477 134.323 394.477 133.323V128.937H398.95C399.963 128.937 400.793 128.131 400.793 127.131C400.793 126.13 399.971 125.324 398.95 125.324L398.968 125.341Z" fill="url(#paint45_linear_1922_6898)"/>
<path d="M360.574 125.341H356.101V120.956C356.101 119.963 355.279 119.149 354.258 119.149C353.245 119.149 352.415 119.955 352.415 120.956V125.341H347.941C346.929 125.341 346.098 126.147 346.098 127.148C346.098 127.648 346.305 128.098 346.634 128.42C346.963 128.742 347.43 128.946 347.932 128.946H352.406V133.331C352.406 133.831 352.614 134.281 352.942 134.603C353.271 134.926 353.738 135.129 354.24 135.129C355.253 135.129 356.083 134.323 356.083 133.323V128.937H360.557C361.569 128.937 362.4 128.131 362.4 127.131C362.4 126.13 361.578 125.324 360.557 125.324L360.574 125.341Z" fill="url(#paint46_linear_1922_6898)"/>
<path d="M322.172 125.341H317.699V120.956C317.699 119.963 316.877 119.149 315.856 119.149C314.843 119.149 314.013 119.955 314.013 120.956V125.341H309.539C308.527 125.341 307.696 126.147 307.696 127.148C307.696 127.648 307.904 128.098 308.232 128.42C308.561 128.742 309.028 128.946 309.53 128.946H314.004V133.331C314.004 133.831 314.212 134.281 314.54 134.603C314.869 134.926 315.336 135.129 315.838 135.129C316.851 135.129 317.681 134.323 317.681 133.323V128.937H322.155C323.167 128.937 323.998 128.131 323.998 127.131C323.998 126.13 323.176 125.324 322.155 125.324L322.172 125.341Z" fill="url(#paint47_linear_1922_6898)"/>
<path d="M283.779 125.341H279.305V120.956C279.305 119.963 278.483 119.149 277.462 119.149C276.45 119.149 275.619 119.955 275.619 120.956V125.341H271.146C270.133 125.341 269.303 126.147 269.303 127.148C269.303 127.648 269.51 128.098 269.839 128.42C270.168 128.742 270.635 128.946 271.137 128.946H275.611V133.331C275.611 133.831 275.818 134.281 276.147 134.603C276.476 134.926 276.943 135.129 277.445 135.129C278.457 135.129 279.288 134.323 279.288 133.323V128.937H283.762C284.774 128.937 285.605 128.131 285.605 127.131C285.605 126.13 284.783 125.324 283.762 125.324L283.779 125.341Z" fill="url(#paint48_linear_1922_6898)"/>
<path d="M245.386 125.341H240.912V120.956C240.912 119.963 240.09 119.149 239.069 119.149C238.057 119.149 237.226 119.955 237.226 120.956V125.341H232.752C231.74 125.341 230.909 126.147 230.909 127.148C230.909 127.648 231.117 128.098 231.446 128.42C231.775 128.742 232.242 128.946 232.744 128.946H237.217V133.331C237.217 133.831 237.425 134.281 237.754 134.603C238.083 134.926 238.55 135.129 239.052 135.129C240.064 135.129 240.895 134.323 240.895 133.323V128.937H245.368C246.381 128.937 247.212 128.131 247.212 127.131C247.212 126.13 246.389 125.324 245.368 125.324L245.386 125.341Z" fill="url(#paint49_linear_1922_6898)"/>
<path d="M206.984 125.341H202.51V120.956C202.51 119.963 201.688 119.149 200.667 119.149C199.655 119.149 198.824 119.955 198.824 120.956V125.341H194.35C193.338 125.341 192.507 126.147 192.507 127.148C192.507 127.648 192.715 128.098 193.044 128.42C193.373 128.742 193.84 128.946 194.342 128.946H198.815V133.331C198.815 133.831 199.023 134.281 199.352 134.603C199.681 134.926 200.148 135.129 200.65 135.129C201.662 135.129 202.493 134.323 202.493 133.323V128.937H206.966C207.979 128.937 208.81 128.131 208.81 127.131C208.81 126.13 207.987 125.324 206.966 125.324L206.984 125.341Z" fill="url(#paint50_linear_1922_6898)"/>
<path d="M168.59 125.341H164.117V120.956C164.117 119.963 163.295 119.149 162.274 119.149C161.261 119.149 160.431 119.955 160.431 120.956V125.341H155.957C154.945 125.341 154.114 126.147 154.114 127.148C154.114 127.648 154.322 128.098 154.65 128.42C154.979 128.742 155.447 128.946 155.948 128.946H160.422V133.331C160.422 133.831 160.63 134.281 160.959 134.603C161.287 134.926 161.755 135.129 162.256 135.129C163.269 135.129 164.1 134.323 164.1 133.323V128.937H168.573C169.586 128.937 170.416 128.131 170.416 127.131C170.416 126.13 169.594 125.324 168.573 125.324L168.59 125.341Z" fill="url(#paint51_linear_1922_6898)"/>
<path d="M130.188 125.341H125.715V120.956C125.715 119.963 124.893 119.149 123.872 119.149C122.859 119.149 122.029 119.955 122.029 120.956V125.341H117.555C116.543 125.341 115.712 126.147 115.712 127.148C115.712 127.648 115.92 128.098 116.249 128.42C116.577 128.742 117.045 128.946 117.546 128.946H122.02V133.331C122.02 133.831 122.228 134.281 122.557 134.603C122.885 134.926 123.353 135.129 123.854 135.129C124.867 135.129 125.698 134.323 125.698 133.323V128.937H130.171C131.184 128.937 132.014 128.131 132.014 127.131C132.014 126.13 131.192 125.324 130.171 125.324L130.188 125.341Z" fill="url(#paint52_linear_1922_6898)"/>
<path d="M91.7952 125.341H87.3216V120.956C87.3216 119.963 86.4995 119.149 85.4785 119.149C84.4661 119.149 83.6354 119.955 83.6354 120.956V125.341H79.1618C78.1494 125.341 77.3187 126.147 77.3187 127.148C77.3187 127.648 77.5264 128.098 77.8552 128.42C78.184 128.742 78.6513 128.946 79.1532 128.946H83.6267V133.331C83.6267 133.831 83.8344 134.281 84.1632 134.603C84.492 134.926 84.9593 135.129 85.4612 135.129C86.4736 135.129 87.3043 134.323 87.3043 133.323V128.937H91.7779C92.7903 128.937 93.6209 128.131 93.6209 127.131C93.6209 126.13 92.7989 125.324 91.7779 125.324L91.7952 125.341Z" fill="url(#paint53_linear_1922_6898)"/>
<path d="M53.4018 125.341H48.9282V120.956C48.9282 119.963 48.1062 119.149 47.0852 119.149C46.0728 119.149 45.2421 119.955 45.2421 120.956V125.341H40.7685C39.7561 125.341 38.9254 126.147 38.9254 127.148C38.9254 127.648 39.1331 128.098 39.4619 128.42C39.7907 128.742 40.258 128.946 40.7598 128.946H45.2334V133.331C45.2334 133.831 45.4411 134.281 45.7699 134.603C46.0987 134.926 46.566 135.129 47.0679 135.129C48.0803 135.129 48.9109 134.323 48.9109 133.323V128.937H53.3845C54.3969 128.937 55.2276 128.131 55.2276 127.131C55.2276 126.13 54.4056 125.324 53.3845 125.324L53.4018 125.341Z" fill="url(#paint54_linear_1922_6898)"/>
<path d="M14.9999 125.341H10.5263V120.956C10.5263 119.963 9.70426 119.149 8.68321 119.149C7.67081 119.149 6.84012 119.955 6.84012 120.956V125.341H2.36652C1.36278 125.341 0.540743 126.147 0.540743 127.139C0.540743 127.639 0.748415 128.089 1.07723 128.411C1.40604 128.734 1.8733 128.937 2.37518 128.937H6.84877V133.323C6.84877 133.823 7.05644 134.273 7.38526 134.595C7.71407 134.917 8.18133 135.121 8.68321 135.121C9.69561 135.121 10.5263 134.315 10.5263 133.314V128.929H14.9999C16.0123 128.929 16.843 128.123 16.843 127.122C16.843 126.121 16.0209 125.315 14.9999 125.315V125.341Z" fill="url(#paint55_linear_1922_6898)"/>
<path d="M514.165 165.054H509.691V160.669C509.691 159.677 508.869 158.862 507.848 158.862C506.836 158.862 506.005 159.668 506.005 160.669V165.054H501.531C500.519 165.054 499.688 165.86 499.688 166.861C499.688 167.361 499.896 167.811 500.225 168.133C500.554 168.456 501.021 168.659 501.523 168.659H505.996V173.044C505.996 173.545 506.204 173.994 506.533 174.317C506.862 174.639 507.329 174.843 507.831 174.843C508.843 174.843 509.674 174.037 509.674 173.036V168.651H514.147C515.16 168.651 515.991 167.845 515.991 166.844C515.991 165.843 515.169 165.037 514.147 165.037L514.165 165.054Z" fill="url(#paint56_linear_1922_6898)"/>
<path d="M475.763 165.054H471.289V160.669C471.289 159.677 470.467 158.862 469.446 158.862C468.434 158.862 467.603 159.668 467.603 160.669V165.054H463.13C462.117 165.054 461.286 165.86 461.286 166.861C461.286 167.361 461.494 167.811 461.823 168.133C462.152 168.456 462.619 168.659 463.121 168.659H467.595V173.044C467.595 173.545 467.802 173.994 468.131 174.317C468.46 174.639 468.927 174.843 469.429 174.843C470.441 174.843 471.272 174.037 471.272 173.036V168.651H475.746C476.758 168.651 477.589 167.845 477.589 166.844C477.589 165.843 476.767 165.037 475.746 165.037L475.763 165.054Z" fill="url(#paint57_linear_1922_6898)"/>
<path d="M437.37 165.054H432.896V160.669C432.896 159.677 432.074 158.862 431.053 158.862C430.041 158.862 429.21 159.668 429.21 160.669V165.054H424.736C423.724 165.054 422.893 165.86 422.893 166.861C422.893 167.361 423.101 167.811 423.43 168.133C423.758 168.456 424.226 168.659 424.728 168.659H429.201V173.044C429.201 173.545 429.409 173.994 429.738 174.317C430.066 174.639 430.534 174.843 431.036 174.843C432.048 174.843 432.879 174.037 432.879 173.036V168.651H437.352C438.365 168.651 439.195 167.845 439.195 166.844C439.195 165.843 438.373 165.037 437.352 165.037L437.37 165.054Z" fill="url(#paint58_linear_1922_6898)"/>
<path d="M398.968 165.054H394.494V160.669C394.494 159.677 393.672 158.862 392.651 158.862C391.639 158.862 390.808 159.668 390.808 160.669V165.054H386.334C385.322 165.054 384.491 165.86 384.491 166.861C384.491 167.361 384.699 167.811 385.028 168.133C385.356 168.456 385.824 168.659 386.326 168.659H390.799V173.044C390.799 173.545 391.007 173.994 391.336 174.317C391.664 174.639 392.132 174.843 392.634 174.843C393.646 174.843 394.477 174.037 394.477 173.036V168.651H398.95C399.963 168.651 400.793 167.845 400.793 166.844C400.793 165.843 399.971 165.037 398.95 165.037L398.968 165.054Z" fill="url(#paint59_linear_1922_6898)"/>
<path d="M360.574 165.054H356.101V160.669C356.101 159.677 355.279 158.862 354.258 158.862C353.245 158.862 352.415 159.668 352.415 160.669V165.054H347.941C346.929 165.054 346.098 165.86 346.098 166.861C346.098 167.361 346.305 167.811 346.634 168.133C346.963 168.456 347.43 168.659 347.932 168.659H352.406V173.044C352.406 173.545 352.614 173.994 352.942 174.317C353.271 174.639 353.738 174.843 354.24 174.843C355.253 174.843 356.083 174.037 356.083 173.036V168.651H360.557C361.569 168.651 362.4 167.845 362.4 166.844C362.4 165.843 361.578 165.037 360.557 165.037L360.574 165.054Z" fill="url(#paint60_linear_1922_6898)"/>
<path d="M322.172 165.054H317.699V160.669C317.699 159.677 316.877 158.862 315.856 158.862C314.843 158.862 314.013 159.668 314.013 160.669V165.054H309.539C308.527 165.054 307.696 165.86 307.696 166.861C307.696 167.361 307.904 167.811 308.232 168.133C308.561 168.456 309.028 168.659 309.53 168.659H314.004V173.044C314.004 173.545 314.212 173.994 314.54 174.317C314.869 174.639 315.336 174.843 315.838 174.843C316.851 174.843 317.681 174.037 317.681 173.036V168.651H322.155C323.167 168.651 323.998 167.845 323.998 166.844C323.998 165.843 323.176 165.037 322.155 165.037L322.172 165.054Z" fill="url(#paint61_linear_1922_6898)"/>
<path d="M283.779 165.054H279.305V160.669C279.305 159.677 278.483 158.862 277.462 158.862C276.45 158.862 275.619 159.668 275.619 160.669V165.054H271.146C270.133 165.054 269.303 165.86 269.303 166.861C269.303 167.361 269.51 167.811 269.839 168.133C270.168 168.456 270.635 168.659 271.137 168.659H275.611V173.044C275.611 173.545 275.818 173.994 276.147 174.317C276.476 174.639 276.943 174.843 277.445 174.843C278.457 174.843 279.288 174.037 279.288 173.036V168.651H283.762C284.774 168.651 285.605 167.845 285.605 166.844C285.605 165.843 284.783 165.037 283.762 165.037L283.779 165.054Z" fill="url(#paint62_linear_1922_6898)"/>
<path d="M245.386 165.054H240.912V160.669C240.912 159.677 240.09 158.862 239.069 158.862C238.057 158.862 237.226 159.668 237.226 160.669V165.054H232.752C231.74 165.054 230.909 165.86 230.909 166.861C230.909 167.361 231.117 167.811 231.446 168.133C231.775 168.456 232.242 168.659 232.744 168.659H237.217V173.044C237.217 173.545 237.425 173.994 237.754 174.317C238.083 174.639 238.55 174.843 239.052 174.843C240.064 174.843 240.895 174.037 240.895 173.036V168.651H245.368C246.381 168.651 247.212 167.845 247.212 166.844C247.212 165.843 246.389 165.037 245.368 165.037L245.386 165.054Z" fill="url(#paint63_linear_1922_6898)"/>
<path d="M206.984 165.054H202.51V160.669C202.51 159.677 201.688 158.862 200.667 158.862C199.655 158.862 198.824 159.668 198.824 160.669V165.054H194.35C193.338 165.054 192.507 165.86 192.507 166.861C192.507 167.361 192.715 167.811 193.044 168.133C193.373 168.456 193.84 168.659 194.342 168.659H198.815V173.044C198.815 173.545 199.023 173.994 199.352 174.317C199.681 174.639 200.148 174.843 200.65 174.843C201.662 174.843 202.493 174.037 202.493 173.036V168.651H206.966C207.979 168.651 208.81 167.845 208.81 166.844C208.81 165.843 207.987 165.037 206.966 165.037L206.984 165.054Z" fill="url(#paint64_linear_1922_6898)"/>
<path d="M168.59 165.054H164.117V160.669C164.117 159.677 163.295 158.862 162.274 158.862C161.261 158.862 160.431 159.668 160.431 160.669V165.054H155.957C154.945 165.054 154.114 165.86 154.114 166.861C154.114 167.361 154.322 167.811 154.65 168.133C154.979 168.456 155.447 168.659 155.948 168.659H160.422V173.044C160.422 173.545 160.63 173.994 160.959 174.317C161.287 174.639 161.755 174.843 162.256 174.843C163.269 174.843 164.1 174.037 164.1 173.036V168.651H168.573C169.586 168.651 170.416 167.845 170.416 166.844C170.416 165.843 169.594 165.037 168.573 165.037L168.59 165.054Z" fill="url(#paint65_linear_1922_6898)"/>
<path d="M130.188 165.054H125.715V160.669C125.715 159.677 124.893 158.862 123.872 158.862C122.859 158.862 122.029 159.668 122.029 160.669V165.054H117.555C116.543 165.054 115.712 165.86 115.712 166.861C115.712 167.361 115.92 167.811 116.249 168.133C116.577 168.456 117.045 168.659 117.546 168.659H122.02V173.044C122.02 173.545 122.228 173.994 122.557 174.317C122.885 174.639 123.353 174.843 123.854 174.843C124.867 174.843 125.698 174.037 125.698 173.036V168.651H130.171C131.184 168.651 132.014 167.845 132.014 166.844C132.014 165.843 131.192 165.037 130.171 165.037L130.188 165.054Z" fill="url(#paint66_linear_1922_6898)"/>
<path d="M91.7952 165.054H87.3216V160.669C87.3216 159.677 86.4995 158.862 85.4785 158.862C84.4661 158.862 83.6354 159.668 83.6354 160.669V165.054H79.1618C78.1494 165.054 77.3187 165.86 77.3187 166.861C77.3187 167.361 77.5264 167.811 77.8552 168.133C78.184 168.456 78.6513 168.659 79.1532 168.659H83.6267V173.044C83.6267 173.545 83.8344 173.994 84.1632 174.317C84.492 174.639 84.9593 174.843 85.4612 174.843C86.4736 174.843 87.3043 174.037 87.3043 173.036V168.651H91.7779C92.7903 168.651 93.6209 167.845 93.6209 166.844C93.6209 165.843 92.7989 165.037 91.7779 165.037L91.7952 165.054Z" fill="url(#paint67_linear_1922_6898)"/>
<path d="M53.4018 165.054H48.9282V160.669C48.9282 159.677 48.1062 158.862 47.0852 158.862C46.0728 158.862 45.2421 159.668 45.2421 160.669V165.054H40.7685C39.7561 165.054 38.9254 165.86 38.9254 166.861C38.9254 167.361 39.1331 167.811 39.4619 168.133C39.7907 168.456 40.258 168.659 40.7598 168.659H45.2334V173.044C45.2334 173.545 45.4411 173.994 45.7699 174.317C46.0987 174.639 46.566 174.843 47.0679 174.843C48.0803 174.843 48.9109 174.037 48.9109 173.036V168.651H53.3845C54.3969 168.651 55.2276 167.845 55.2276 166.844C55.2276 165.843 54.4056 165.037 53.3845 165.037L53.4018 165.054Z" fill="url(#paint68_linear_1922_6898)"/>
<path d="M14.9999 165.054H10.5263V160.669C10.5263 159.677 9.70426 158.862 8.68321 158.862C7.67081 158.862 6.84012 159.668 6.84012 160.669V165.054H2.36652C1.36278 165.054 0.540743 165.86 0.540743 166.861C0.540743 167.361 0.748415 167.811 1.07723 168.133C1.40604 168.456 1.8733 168.659 2.37518 168.659H6.84877V173.044C6.84877 173.545 7.05644 173.994 7.38526 174.317C7.71407 174.639 8.18133 174.843 8.68321 174.843C9.69561 174.843 10.5263 174.037 10.5263 173.036V168.651H14.9999C16.0123 168.651 16.843 167.845 16.843 166.844C16.843 165.843 16.0209 165.037 14.9999 165.037V165.054Z" fill="url(#paint69_linear_1922_6898)"/>
<path d="M514.165 204.776H509.691V200.391C509.691 199.399 508.869 198.584 507.848 198.584C506.836 198.584 506.005 199.39 506.005 200.391V204.776H501.531C500.519 204.776 499.688 205.582 499.688 206.583C499.688 207.083 499.896 207.533 500.225 207.855C500.554 208.178 501.021 208.381 501.523 208.381H505.996V212.766C505.996 213.267 506.204 213.716 506.533 214.039C506.862 214.361 507.329 214.565 507.831 214.565C508.843 214.565 509.674 213.759 509.674 212.758V208.373H514.147C515.16 208.373 515.991 207.567 515.991 206.566C515.991 205.565 515.169 204.759 514.147 204.759L514.165 204.776Z" fill="url(#paint70_linear_1922_6898)"/>
<path d="M475.763 204.776H471.289V200.391C471.289 199.399 470.467 198.584 469.446 198.584C468.434 198.584 467.603 199.39 467.603 200.391V204.776H463.13C462.117 204.776 461.286 205.582 461.286 206.583C461.286 207.083 461.494 207.533 461.823 207.855C462.152 208.178 462.619 208.381 463.121 208.381H467.595V212.766C467.595 213.267 467.802 213.716 468.131 214.039C468.46 214.361 468.927 214.565 469.429 214.565C470.441 214.565 471.272 213.759 471.272 212.758V208.373H475.746C476.758 208.373 477.589 207.567 477.589 206.566C477.589 205.565 476.767 204.759 475.746 204.759L475.763 204.776Z" fill="url(#paint71_linear_1922_6898)"/>
<path d="M437.37 204.776H432.896V200.391C432.896 199.399 432.074 198.584 431.053 198.584C430.041 198.584 429.21 199.39 429.21 200.391V204.776H424.736C423.724 204.776 422.893 205.582 422.893 206.583C422.893 207.083 423.101 207.533 423.43 207.855C423.758 208.178 424.226 208.381 424.728 208.381H429.201V212.766C429.201 213.267 429.409 213.716 429.738 214.039C430.066 214.361 430.534 214.565 431.036 214.565C432.048 214.565 432.879 213.759 432.879 212.758V208.373H437.352C438.365 208.373 439.195 207.567 439.195 206.566C439.195 205.565 438.373 204.759 437.352 204.759L437.37 204.776Z" fill="url(#paint72_linear_1922_6898)"/>
<path d="M398.968 204.776H394.494V200.391C394.494 199.399 393.672 198.584 392.651 198.584C391.639 198.584 390.808 199.39 390.808 200.391V204.776H386.334C385.322 204.776 384.491 205.582 384.491 206.583C384.491 207.083 384.699 207.533 385.028 207.855C385.356 208.178 385.824 208.381 386.326 208.381H390.799V212.766C390.799 213.267 391.007 213.716 391.336 214.039C391.664 214.361 392.132 214.565 392.634 214.565C393.646 214.565 394.477 213.759 394.477 212.758V208.373H398.95C399.963 208.373 400.793 207.567 400.793 206.566C400.793 205.565 399.971 204.759 398.95 204.759L398.968 204.776Z" fill="url(#paint73_linear_1922_6898)"/>
<path d="M360.574 204.776H356.101V200.391C356.101 199.399 355.279 198.584 354.258 198.584C353.245 198.584 352.415 199.39 352.415 200.391V204.776H347.941C346.929 204.776 346.098 205.582 346.098 206.583C346.098 207.083 346.305 207.533 346.634 207.855C346.963 208.178 347.43 208.381 347.932 208.381H352.406V212.766C352.406 213.267 352.614 213.716 352.942 214.039C353.271 214.361 353.738 214.565 354.24 214.565C355.253 214.565 356.083 213.759 356.083 212.758V208.373H360.557C361.569 208.373 362.4 207.567 362.4 206.566C362.4 205.565 361.578 204.759 360.557 204.759L360.574 204.776Z" fill="url(#paint74_linear_1922_6898)"/>
<path d="M322.172 204.776H317.699V200.391C317.699 199.399 316.877 198.584 315.856 198.584C314.843 198.584 314.013 199.39 314.013 200.391V204.776H309.539C308.527 204.776 307.696 205.582 307.696 206.583C307.696 207.083 307.904 207.533 308.232 207.855C308.561 208.178 309.028 208.381 309.53 208.381H314.004V212.766C314.004 213.267 314.212 213.716 314.54 214.039C314.869 214.361 315.336 214.565 315.838 214.565C316.851 214.565 317.681 213.759 317.681 212.758V208.373H322.155C323.167 208.373 323.998 207.567 323.998 206.566C323.998 205.565 323.176 204.759 322.155 204.759L322.172 204.776Z" fill="url(#paint75_linear_1922_6898)"/>
<path d="M283.779 204.776H279.305V200.391C279.305 199.399 278.483 198.584 277.462 198.584C276.45 198.584 275.619 199.39 275.619 200.391V204.776H271.146C270.133 204.776 269.303 205.582 269.303 206.583C269.303 207.083 269.51 207.533 269.839 207.855C270.168 208.178 270.635 208.381 271.137 208.381H275.611V212.766C275.611 213.267 275.818 213.716 276.147 214.039C276.476 214.361 276.943 214.565 277.445 214.565C278.457 214.565 279.288 213.759 279.288 212.758V208.373H283.762C284.774 208.373 285.605 207.567 285.605 206.566C285.605 205.565 284.783 204.759 283.762 204.759L283.779 204.776Z" fill="url(#paint76_linear_1922_6898)"/>
<path d="M245.386 204.776H240.912V200.391C240.912 199.399 240.09 198.584 239.069 198.584C238.057 198.584 237.226 199.39 237.226 200.391V204.776H232.752C231.74 204.776 230.909 205.582 230.909 206.583C230.909 207.083 231.117 207.533 231.446 207.855C231.775 208.178 232.242 208.381 232.744 208.381H237.217V212.766C237.217 213.267 237.425 213.716 237.754 214.039C238.083 214.361 238.55 214.565 239.052 214.565C240.064 214.565 240.895 213.759 240.895 212.758V208.373H245.368C246.381 208.373 247.212 207.567 247.212 206.566C247.212 205.565 246.389 204.759 245.368 204.759L245.386 204.776Z" fill="url(#paint77_linear_1922_6898)"/>
<path d="M206.984 204.776H202.51V200.391C202.51 199.399 201.688 198.584 200.667 198.584C199.655 198.584 198.824 199.39 198.824 200.391V204.776H194.35C193.338 204.776 192.507 205.582 192.507 206.583C192.507 207.083 192.715 207.533 193.044 207.855C193.373 208.178 193.84 208.381 194.342 208.381H198.815V212.766C198.815 213.267 199.023 213.716 199.352 214.039C199.681 214.361 200.148 214.565 200.65 214.565C201.662 214.565 202.493 213.759 202.493 212.758V208.373H206.966C207.979 208.373 208.81 207.567 208.81 206.566C208.81 205.565 207.987 204.759 206.966 204.759L206.984 204.776Z" fill="url(#paint78_linear_1922_6898)"/>
<path d="M168.59 204.776H164.117V200.391C164.117 199.399 163.295 198.584 162.274 198.584C161.261 198.584 160.431 199.39 160.431 200.391V204.776H155.957C154.945 204.776 154.114 205.582 154.114 206.583C154.114 207.083 154.322 207.533 154.65 207.855C154.979 208.178 155.447 208.381 155.948 208.381H160.422V212.766C160.422 213.267 160.63 213.716 160.959 214.039C161.287 214.361 161.755 214.565 162.256 214.565C163.269 214.565 164.1 213.759 164.1 212.758V208.373H168.573C169.586 208.373 170.416 207.567 170.416 206.566C170.416 205.565 169.594 204.759 168.573 204.759L168.59 204.776Z" fill="url(#paint79_linear_1922_6898)"/>
<path d="M130.188 204.776H125.715V200.391C125.715 199.399 124.893 198.584 123.872 198.584C122.859 198.584 122.029 199.39 122.029 200.391V204.776H117.555C116.543 204.776 115.712 205.582 115.712 206.583C115.712 207.083 115.92 207.533 116.249 207.855C116.577 208.178 117.045 208.381 117.546 208.381H122.02V212.766C122.02 213.267 122.228 213.716 122.557 214.039C122.885 214.361 123.353 214.565 123.854 214.565C124.867 214.565 125.698 213.759 125.698 212.758V208.373H130.171C131.184 208.373 132.014 207.567 132.014 206.566C132.014 205.565 131.192 204.759 130.171 204.759L130.188 204.776Z" fill="url(#paint80_linear_1922_6898)"/>
<path d="M91.7952 204.776H87.3216V200.391C87.3216 199.399 86.4995 198.584 85.4785 198.584C84.4661 198.584 83.6354 199.39 83.6354 200.391V204.776H79.1618C78.1494 204.776 77.3187 205.582 77.3187 206.583C77.3187 207.083 77.5264 207.533 77.8552 207.855C78.184 208.178 78.6513 208.381 79.1532 208.381H83.6267V212.766C83.6267 213.267 83.8344 213.716 84.1632 214.039C84.492 214.361 84.9593 214.565 85.4612 214.565C86.4736 214.565 87.3043 213.759 87.3043 212.758V208.373H91.7779C92.7903 208.373 93.6209 207.567 93.6209 206.566C93.6209 205.565 92.7989 204.759 91.7779 204.759L91.7952 204.776Z" fill="url(#paint81_linear_1922_6898)"/>
<path d="M53.4018 204.776H48.9282V200.391C48.9282 199.399 48.1062 198.584 47.0852 198.584C46.0728 198.584 45.2421 199.39 45.2421 200.391V204.776H40.7685C39.7561 204.776 38.9254 205.582 38.9254 206.583C38.9254 207.083 39.1331 207.533 39.4619 207.855C39.7907 208.178 40.258 208.381 40.7598 208.381H45.2334V212.766C45.2334 213.267 45.4411 213.716 45.7699 214.039C46.0987 214.361 46.566 214.565 47.0679 214.565C48.0803 214.565 48.9109 213.759 48.9109 212.758V208.373H53.3845C54.3969 208.373 55.2276 207.567 55.2276 206.566C55.2276 205.565 54.4056 204.759 53.3845 204.759L53.4018 204.776Z" fill="url(#paint82_linear_1922_6898)"/>
<path d="M14.9999 204.776H10.5263V200.391C10.5263 199.399 9.70426 198.584 8.68321 198.584C7.67081 198.584 6.84012 199.39 6.84012 200.391V204.776H2.36652C1.36278 204.776 0.540743 205.582 0.540743 206.574C0.540743 207.075 0.748415 207.524 1.07723 207.847C1.40604 208.169 1.8733 208.373 2.37518 208.373H6.84877V212.758C6.84877 213.258 7.05644 213.708 7.38526 214.03C7.71407 214.353 8.18133 214.556 8.68321 214.556C9.69561 214.556 10.5263 213.75 10.5263 212.749V208.364H14.9999C16.0123 208.364 16.843 207.558 16.843 206.557C16.843 205.557 16.0209 204.751 14.9999 204.751V204.776Z" fill="url(#paint83_linear_1922_6898)"/>
<path d="M514.165 244.49H509.691V240.104C509.691 239.112 508.869 238.298 507.848 238.298C506.836 238.298 506.005 239.103 506.005 240.104V244.49H501.531C500.519 244.49 499.688 245.295 499.688 246.296C499.688 246.797 499.896 247.246 500.225 247.569C500.554 247.891 501.021 248.095 501.523 248.095H505.996V252.48C505.996 252.98 506.204 253.43 506.533 253.752C506.862 254.075 507.329 254.278 507.831 254.278C508.843 254.278 509.674 253.472 509.674 252.471V248.086H514.148C515.16 248.086 515.991 247.28 515.991 246.279C515.991 245.279 515.169 244.473 514.148 244.473L514.165 244.49Z" fill="url(#paint84_linear_1922_6898)"/>
<path d="M475.763 244.49H471.289V240.104C471.289 239.112 470.467 238.298 469.446 238.298C468.434 238.298 467.603 239.103 467.603 240.104V244.49H463.13C462.117 244.49 461.286 245.295 461.286 246.296C461.286 246.797 461.494 247.246 461.823 247.569C462.152 247.891 462.619 248.095 463.121 248.095H467.595V252.48C467.595 252.98 467.802 253.43 468.131 253.752C468.46 254.075 468.927 254.278 469.429 254.278C470.441 254.278 471.272 253.472 471.272 252.471V248.086H475.746C476.758 248.086 477.589 247.28 477.589 246.279C477.589 245.279 476.767 244.473 475.746 244.473L475.763 244.49Z" fill="url(#paint85_linear_1922_6898)"/>
<path d="M437.37 244.49H432.896V240.104C432.896 239.112 432.074 238.298 431.053 238.298C430.04 238.298 429.21 239.103 429.21 240.104V244.49H424.736C423.724 244.49 422.893 245.295 422.893 246.296C422.893 246.797 423.101 247.246 423.43 247.569C423.758 247.891 424.226 248.095 424.728 248.095H429.201V252.48C429.201 252.98 429.409 253.43 429.738 253.752C430.066 254.075 430.534 254.278 431.036 254.278C432.048 254.278 432.879 253.472 432.879 252.471V248.086H437.352C438.365 248.086 439.195 247.28 439.195 246.279C439.195 245.279 438.373 244.473 437.352 244.473L437.37 244.49Z" fill="url(#paint86_linear_1922_6898)"/>
<path d="M398.968 244.49H394.494V240.104C394.494 239.112 393.672 238.298 392.651 238.298C391.639 238.298 390.808 239.103 390.808 240.104V244.49H386.334C385.322 244.49 384.491 245.295 384.491 246.296C384.491 246.797 384.699 247.246 385.028 247.569C385.356 247.891 385.824 248.095 386.326 248.095H390.799V252.48C390.799 252.98 391.007 253.43 391.336 253.752C391.664 254.075 392.132 254.278 392.634 254.278C393.646 254.278 394.477 253.472 394.477 252.471V248.086H398.95C399.963 248.086 400.793 247.28 400.793 246.279C400.793 245.279 399.971 244.473 398.95 244.473L398.968 244.49Z" fill="url(#paint87_linear_1922_6898)"/>
<path d="M360.574 244.49H356.101V240.104C356.101 239.112 355.279 238.298 354.258 238.298C353.245 238.298 352.414 239.103 352.414 240.104V244.49H347.941C346.928 244.49 346.098 245.295 346.098 246.296C346.098 246.797 346.305 247.246 346.634 247.569C346.963 247.891 347.43 248.095 347.932 248.095H352.406V252.48C352.406 252.98 352.613 253.43 352.942 253.752C353.271 254.075 353.738 254.278 354.24 254.278C355.253 254.278 356.083 253.472 356.083 252.471V248.086H360.557C361.569 248.086 362.4 247.28 362.4 246.279C362.4 245.279 361.578 244.473 360.557 244.473L360.574 244.49Z" fill="url(#paint88_linear_1922_6898)"/>
<path d="M322.172 244.49H317.699V240.104C317.699 239.112 316.877 238.298 315.856 238.298C314.843 238.298 314.013 239.103 314.013 240.104V244.49H309.539C308.527 244.49 307.696 245.295 307.696 246.296C307.696 246.797 307.904 247.246 308.232 247.569C308.561 247.891 309.028 248.095 309.53 248.095H314.004V252.48C314.004 252.98 314.212 253.43 314.54 253.752C314.869 254.075 315.336 254.278 315.838 254.278C316.851 254.278 317.681 253.472 317.681 252.471V248.086H322.155C323.167 248.086 323.998 247.28 323.998 246.279C323.998 245.279 323.176 244.473 322.155 244.473L322.172 244.49Z" fill="url(#paint89_linear_1922_6898)"/>
<path d="M283.779 244.49H279.305V240.104C279.305 239.112 278.483 238.298 277.462 238.298C276.45 238.298 275.619 239.103 275.619 240.104V244.49H271.146C270.133 244.49 269.303 245.295 269.303 246.296C269.303 246.797 269.51 247.246 269.839 247.569C270.168 247.891 270.635 248.095 271.137 248.095H275.611V252.48C275.611 252.98 275.818 253.43 276.147 253.752C276.476 254.075 276.943 254.278 277.445 254.278C278.457 254.278 279.288 253.472 279.288 252.471V248.086H283.762C284.774 248.086 285.605 247.28 285.605 246.279C285.605 245.279 284.783 244.473 283.762 244.473L283.779 244.49Z" fill="url(#paint90_linear_1922_6898)"/>
<path d="M245.386 244.49H240.912V240.104C240.912 239.112 240.09 238.298 239.069 238.298C238.057 238.298 237.226 239.103 237.226 240.104V244.49H232.752C231.74 244.49 230.909 245.295 230.909 246.296C230.909 246.797 231.117 247.246 231.446 247.569C231.775 247.891 232.242 248.095 232.744 248.095H237.217V252.48C237.217 252.98 237.425 253.43 237.754 253.752C238.083 254.075 238.55 254.278 239.052 254.278C240.064 254.278 240.895 253.472 240.895 252.471V248.086H245.368C246.381 248.086 247.212 247.28 247.212 246.279C247.212 245.279 246.389 244.473 245.368 244.473L245.386 244.49Z" fill="url(#paint91_linear_1922_6898)"/>
<path d="M206.984 244.49H202.51V240.104C202.51 239.112 201.688 238.298 200.667 238.298C199.655 238.298 198.824 239.103 198.824 240.104V244.49H194.35C193.338 244.49 192.507 245.295 192.507 246.296C192.507 246.797 192.715 247.246 193.044 247.569C193.373 247.891 193.84 248.095 194.342 248.095H198.815V252.48C198.815 252.98 199.023 253.43 199.352 253.752C199.681 254.075 200.148 254.278 200.65 254.278C201.662 254.278 202.493 253.472 202.493 252.471V248.086H206.966C207.979 248.086 208.81 247.28 208.81 246.279C208.81 245.279 207.988 244.473 206.966 244.473L206.984 244.49Z" fill="url(#paint92_linear_1922_6898)"/>
<path d="M168.59 244.49H164.117V240.104C164.117 239.112 163.295 238.298 162.274 238.298C161.261 238.298 160.431 239.103 160.431 240.104V244.49H155.957C154.945 244.49 154.114 245.295 154.114 246.296C154.114 246.797 154.322 247.246 154.65 247.569C154.979 247.891 155.447 248.095 155.948 248.095H160.422V252.48C160.422 252.98 160.63 253.43 160.958 253.752C161.287 254.075 161.755 254.278 162.256 254.278C163.269 254.278 164.1 253.472 164.1 252.471V248.086H168.573C169.586 248.086 170.416 247.28 170.416 246.279C170.416 245.279 169.594 244.473 168.573 244.473L168.59 244.49Z" fill="url(#paint93_linear_1922_6898)"/>
<path d="M130.188 244.49H125.715V240.104C125.715 239.112 124.893 238.298 123.872 238.298C122.859 238.298 122.029 239.103 122.029 240.104V244.49H117.555C116.543 244.49 115.712 245.295 115.712 246.296C115.712 246.797 115.92 247.246 116.249 247.569C116.577 247.891 117.045 248.095 117.546 248.095H122.02V252.48C122.02 252.98 122.228 253.43 122.557 253.752C122.885 254.075 123.353 254.278 123.854 254.278C124.867 254.278 125.698 253.472 125.698 252.471V248.086H130.171C131.184 248.086 132.014 247.28 132.014 246.279C132.014 245.279 131.192 244.473 130.171 244.473L130.188 244.49Z" fill="url(#paint94_linear_1922_6898)"/>
<path d="M91.7952 244.49H87.3216V240.104C87.3216 239.112 86.4995 238.298 85.4785 238.298C84.4661 238.298 83.6354 239.103 83.6354 240.104V244.49H79.1618C78.1494 244.49 77.3187 245.295 77.3187 246.296C77.3187 246.797 77.5264 247.246 77.8552 247.569C78.184 247.891 78.6513 248.095 79.1531 248.095H83.6267V252.48C83.6267 252.98 83.8344 253.43 84.1632 253.752C84.492 254.075 84.9593 254.278 85.4612 254.278C86.4736 254.278 87.3043 253.472 87.3043 252.471V248.086H91.7779C92.7903 248.086 93.6209 247.28 93.6209 246.279C93.6209 245.279 92.7989 244.473 91.7779 244.473L91.7952 244.49Z" fill="url(#paint95_linear_1922_6898)"/>
<path d="M53.4018 244.49H48.9283V240.104C48.9283 239.112 48.1062 238.298 47.0852 238.298C46.0728 238.298 45.2421 239.103 45.2421 240.104V244.49H40.7685C39.7561 244.49 38.9254 245.295 38.9254 246.296C38.9254 246.797 39.1331 247.246 39.4619 247.569C39.7907 247.891 40.258 248.095 40.7598 248.095H45.2334V252.48C45.2334 252.98 45.4411 253.43 45.7699 253.752C46.0987 254.075 46.566 254.278 47.0679 254.278C48.0803 254.278 48.9109 253.472 48.9109 252.471V248.086H53.3845C54.3969 248.086 55.2276 247.28 55.2276 246.279C55.2276 245.279 54.4056 244.473 53.3845 244.473L53.4018 244.49Z" fill="url(#paint96_linear_1922_6898)"/>
<path d="M14.9999 244.49H10.5263V240.104C10.5263 239.112 9.70426 238.298 8.68321 238.298C7.67081 238.298 6.84012 239.103 6.84012 240.104V244.49H2.36652C1.35412 244.49 0.523438 245.295 0.523438 246.296C0.523438 246.797 0.731109 247.246 1.05992 247.569C1.38874 247.891 1.856 248.095 2.35787 248.095H6.83147V252.48C6.83147 252.98 7.03914 253.43 7.36795 253.752C7.69676 254.074 8.16403 254.278 8.6659 254.278C9.6783 254.278 10.509 253.472 10.509 252.471V248.086H14.9826C15.995 248.086 16.8257 247.28 16.8257 246.279C16.8257 245.278 16.0036 244.473 14.9826 244.473L14.9999 244.49Z" fill="url(#paint97_linear_1922_6898)"/>
<path d="M514.165 284.203H509.691V279.818C509.691 278.825 508.869 278.011 507.848 278.011C506.836 278.011 506.005 278.817 506.005 279.818V284.203H501.531C500.519 284.203 499.688 285.009 499.688 286.01C499.688 286.51 499.896 286.96 500.225 287.282C500.554 287.604 501.021 287.808 501.523 287.808H505.996V292.193C505.996 292.694 506.204 293.143 506.533 293.466C506.862 293.788 507.329 293.992 507.831 293.992C508.843 293.992 509.674 293.186 509.674 292.185V287.8H514.148C515.16 287.8 515.991 286.994 515.991 285.993C515.991 284.992 515.169 284.186 514.148 284.186L514.165 284.203Z" fill="url(#paint98_linear_1922_6898)"/>
<path d="M475.763 284.203H471.289V279.818C471.289 278.825 470.467 278.011 469.446 278.011C468.434 278.011 467.603 278.817 467.603 279.818V284.203H463.13C462.117 284.203 461.286 285.009 461.286 286.01C461.286 286.51 461.494 286.96 461.823 287.282C462.152 287.604 462.619 287.808 463.121 287.808H467.595V292.193C467.595 292.694 467.802 293.143 468.131 293.466C468.46 293.788 468.927 293.992 469.429 293.992C470.441 293.992 471.272 293.186 471.272 292.185V287.8H475.746C476.758 287.8 477.589 286.994 477.589 285.993C477.589 284.992 476.767 284.186 475.746 284.186L475.763 284.203Z" fill="url(#paint99_linear_1922_6898)"/>
<path d="M437.37 284.203H432.896V279.818C432.896 278.825 432.074 278.011 431.053 278.011C430.04 278.011 429.21 278.817 429.21 279.818V284.203H424.736C423.724 284.203 422.893 285.009 422.893 286.01C422.893 286.51 423.101 286.96 423.43 287.282C423.758 287.604 424.226 287.808 424.728 287.808H429.201V292.193C429.201 292.694 429.409 293.143 429.738 293.466C430.066 293.788 430.534 293.992 431.036 293.992C432.048 293.992 432.879 293.186 432.879 292.185V287.8H437.352C438.365 287.8 439.195 286.994 439.195 285.993C439.195 284.992 438.373 284.186 437.352 284.186L437.37 284.203Z" fill="url(#paint100_linear_1922_6898)"/>
<path d="M398.968 284.203H394.494V279.818C394.494 278.825 393.672 278.011 392.651 278.011C391.639 278.011 390.808 278.817 390.808 279.818V284.203H386.334C385.322 284.203 384.491 285.009 384.491 286.01C384.491 286.51 384.699 286.96 385.028 287.282C385.356 287.604 385.824 287.808 386.326 287.808H390.799V292.193C390.799 292.694 391.007 293.143 391.336 293.466C391.664 293.788 392.132 293.992 392.634 293.992C393.646 293.992 394.477 293.186 394.477 292.185V287.8H398.95C399.963 287.8 400.793 286.994 400.793 285.993C400.793 284.992 399.971 284.186 398.95 284.186L398.968 284.203Z" fill="url(#paint101_linear_1922_6898)"/>
<path d="M360.574 284.203H356.101V279.818C356.101 278.825 355.279 278.011 354.258 278.011C353.245 278.011 352.414 278.817 352.414 279.818V284.203H347.941C346.928 284.203 346.098 285.009 346.098 286.01C346.098 286.51 346.305 286.96 346.634 287.282C346.963 287.604 347.43 287.808 347.932 287.808H352.406V292.193C352.406 292.694 352.613 293.143 352.942 293.466C353.271 293.788 353.738 293.992 354.24 293.992C355.253 293.992 356.083 293.186 356.083 292.185V287.8H360.557C361.569 287.8 362.4 286.994 362.4 285.993C362.4 284.992 361.578 284.186 360.557 284.186L360.574 284.203Z" fill="url(#paint102_linear_1922_6898)"/>
<path d="M322.172 284.203H317.699V279.818C317.699 278.825 316.877 278.011 315.856 278.011C314.843 278.011 314.013 278.817 314.013 279.818V284.203H309.539C308.527 284.203 307.696 285.009 307.696 286.01C307.696 286.51 307.904 286.96 308.232 287.282C308.561 287.604 309.028 287.808 309.53 287.808H314.004V292.193C314.004 292.694 314.212 293.143 314.54 293.466C314.869 293.788 315.336 293.992 315.838 293.992C316.851 293.992 317.681 293.186 317.681 292.185V287.8H322.155C323.167 287.8 323.998 286.994 323.998 285.993C323.998 284.992 323.176 284.186 322.155 284.186L322.172 284.203Z" fill="url(#paint103_linear_1922_6898)"/>
<path d="M283.779 284.203H279.305V279.818C279.305 278.825 278.483 278.011 277.462 278.011C276.45 278.011 275.619 278.817 275.619 279.818V284.203H271.146C270.133 284.203 269.303 285.009 269.303 286.01C269.303 286.51 269.51 286.96 269.839 287.282C270.168 287.604 270.635 287.808 271.137 287.808H275.611V292.193C275.611 292.694 275.818 293.143 276.147 293.466C276.476 293.788 276.943 293.992 277.445 293.992C278.457 293.992 279.288 293.186 279.288 292.185V287.8H283.762C284.774 287.8 285.605 286.994 285.605 285.993C285.605 284.992 284.783 284.186 283.762 284.186L283.779 284.203Z" fill="url(#paint104_linear_1922_6898)"/>
<path d="M245.386 284.203H240.912V279.818C240.912 278.825 240.09 278.011 239.069 278.011C238.057 278.011 237.226 278.817 237.226 279.818V284.203H232.752C231.74 284.203 230.909 285.009 230.909 286.01C230.909 286.51 231.117 286.96 231.446 287.282C231.775 287.604 232.242 287.808 232.744 287.808H237.217V292.193C237.217 292.694 237.425 293.143 237.754 293.466C238.083 293.788 238.55 293.992 239.052 293.992C240.064 293.992 240.895 293.186 240.895 292.185V287.8H245.368C246.381 287.8 247.212 286.994 247.212 285.993C247.212 284.992 246.389 284.186 245.368 284.186L245.386 284.203Z" fill="url(#paint105_linear_1922_6898)"/>
<path d="M206.984 284.203H202.51V279.818C202.51 278.825 201.688 278.011 200.667 278.011C199.655 278.011 198.824 278.817 198.824 279.818V284.203H194.35C193.338 284.203 192.507 285.009 192.507 286.01C192.507 286.51 192.715 286.96 193.044 287.282C193.373 287.604 193.84 287.808 194.342 287.808H198.815V292.193C198.815 292.694 199.023 293.143 199.352 293.466C199.681 293.788 200.148 293.992 200.65 293.992C201.662 293.992 202.493 293.186 202.493 292.185V287.8H206.966C207.979 287.8 208.81 286.994 208.81 285.993C208.81 284.992 207.988 284.186 206.966 284.186L206.984 284.203Z" fill="url(#paint106_linear_1922_6898)"/>
<path d="M168.59 284.203H164.117V279.818C164.117 278.825 163.295 278.011 162.274 278.011C161.261 278.011 160.431 278.817 160.431 279.818V284.203H155.957C154.945 284.203 154.114 285.009 154.114 286.01C154.114 286.51 154.322 286.96 154.65 287.282C154.979 287.604 155.447 287.808 155.948 287.808H160.422V292.193C160.422 292.694 160.63 293.143 160.958 293.466C161.287 293.788 161.755 293.992 162.256 293.992C163.269 293.992 164.1 293.186 164.1 292.185V287.8H168.573C169.586 287.8 170.416 286.994 170.416 285.993C170.416 284.992 169.594 284.186 168.573 284.186L168.59 284.203Z" fill="url(#paint107_linear_1922_6898)"/>
<path d="M130.188 284.203H125.715V279.818C125.715 278.825 124.893 278.011 123.872 278.011C122.859 278.011 122.029 278.817 122.029 279.818V284.203H117.555C116.543 284.203 115.712 285.009 115.712 286.01C115.712 286.51 115.92 286.96 116.249 287.282C116.577 287.604 117.045 287.808 117.546 287.808H122.02V292.193C122.02 292.694 122.228 293.143 122.557 293.466C122.885 293.788 123.353 293.992 123.854 293.992C124.867 293.992 125.698 293.186 125.698 292.185V287.8H130.171C131.184 287.8 132.014 286.994 132.014 285.993C132.014 284.992 131.192 284.186 130.171 284.186L130.188 284.203Z" fill="url(#paint108_linear_1922_6898)"/>
<path d="M91.7952 284.203H87.3216V279.818C87.3216 278.825 86.4995 278.011 85.4785 278.011C84.4661 278.011 83.6354 278.817 83.6354 279.818V284.203H79.1618C78.1494 284.203 77.3187 285.009 77.3187 286.01C77.3187 286.51 77.5264 286.96 77.8552 287.282C78.184 287.604 78.6513 287.808 79.1531 287.808H83.6267V292.193C83.6267 292.694 83.8344 293.143 84.1632 293.466C84.492 293.788 84.9593 293.992 85.4612 293.992C86.4736 293.992 87.3043 293.186 87.3043 292.185V287.8H91.7779C92.7903 287.8 93.6209 286.994 93.6209 285.993C93.6209 284.992 92.7989 284.186 91.7779 284.186L91.7952 284.203Z" fill="url(#paint109_linear_1922_6898)"/>
<path d="M53.4018 284.203H48.9283V279.818C48.9283 278.825 48.1062 278.011 47.0852 278.011C46.0728 278.011 45.2421 278.817 45.2421 279.818V284.203H40.7685C39.7561 284.203 38.9254 285.009 38.9254 286.01C38.9254 286.51 39.1331 286.96 39.4619 287.282C39.7907 287.604 40.258 287.808 40.7598 287.808H45.2334V292.193C45.2334 292.694 45.4411 293.143 45.7699 293.466C46.0987 293.788 46.566 293.992 47.0679 293.992C48.0803 293.992 48.9109 293.186 48.9109 292.185V287.8H53.3845C54.3969 287.8 55.2276 286.994 55.2276 285.993C55.2276 284.992 54.4056 284.186 53.3845 284.186L53.4018 284.203Z" fill="url(#paint110_linear_1922_6898)"/>
<path d="M14.9999 284.203H10.5263V279.818C10.5263 278.825 9.70426 278.011 8.68321 278.011C7.67081 278.011 6.84012 278.817 6.84012 279.818V284.203H2.36652C1.35412 284.203 0.523438 285.009 0.523438 286.01C0.523438 286.51 0.731109 286.96 1.05992 287.282C1.38874 287.604 1.856 287.808 2.35787 287.808H6.83147V292.193C6.83147 292.694 7.03914 293.143 7.36795 293.466C7.69676 293.788 8.16403 293.992 8.6659 293.992C9.6783 293.992 10.509 293.186 10.509 292.185V287.8H14.9826C15.995 287.8 16.8257 286.994 16.8257 285.993C16.8257 284.992 16.0036 284.186 14.9826 284.186L14.9999 284.203Z" fill="url(#paint111_linear_1922_6898)"/>
</g>
<defs>
<linearGradient id="paint0_linear_1922_6898" x1="204.999" y1="42" x2="303.499" y2="310.5" gradientUnits="userSpaceOnUse">
<stop stop-color="#FFFBEB"/>
<stop offset="0.5" stop-color="#FDE68A"/>
<stop offset="1" stop-color="#FEF3C7"/>
</linearGradient>
<linearGradient id="paint1_linear_1922_6898" x1="204.999" y1="42" x2="303.499" y2="310.5" gradientUnits="userSpaceOnUse">
<stop stop-color="#FFFBEB"/>
<stop offset="0.5" stop-color="#FDE68A"/>
<stop offset="1" stop-color="#FEF3C7"/>
</linearGradient>
<linearGradient id="paint2_linear_1922_6898" x1="204.999" y1="42" x2="303.499" y2="310.5" gradientUnits="userSpaceOnUse">
<stop stop-color="#FFFBEB"/>
<stop offset="0.5" stop-color="#FDE68A"/>
<stop offset="1" stop-color="#FEF3C7"/>
</linearGradient>
<linearGradient id="paint3_linear_1922_6898" x1="204.999" y1="42" x2="303.499" y2="310.5" gradientUnits="userSpaceOnUse">
<stop stop-color="#FFFBEB"/>
<stop offset="0.5" stop-color="#FDE68A"/>
<stop offset="1" stop-color="#FEF3C7"/>
</linearGradient>
<linearGradient id="paint4_linear_1922_6898" x1="204.999" y1="42" x2="303.499" y2="310.5" gradientUnits="userSpaceOnUse">
<stop stop-color="#FFFBEB"/>
<stop offset="0.5" stop-color="#FDE68A"/>
<stop offset="1" stop-color="#FEF3C7"/>
</linearGradient>
<linearGradient id="paint5_linear_1922_6898" x1="204.999" y1="42" x2="303.499" y2="310.5" gradientUnits="userSpaceOnUse">
<stop stop-color="#FFFBEB"/>
<stop offset="0.5" stop-color="#FDE68A"/>
<stop offset="1" stop-color="#FEF3C7"/>
</linearGradient>
<linearGradient id="paint6_linear_1922_6898" x1="204.999" y1="42" x2="303.499" y2="310.5" gradientUnits="userSpaceOnUse">
<stop stop-color="#FFFBEB"/>
<stop offset="0.5" stop-color="#FDE68A"/>
<stop offset="1" stop-color="#FEF3C7"/>
</linearGradient>
<linearGradient id="paint7_linear_1922_6898" x1="204.999" y1="42" x2="303.499" y2="310.5" gradientUnits="userSpaceOnUse">
<stop stop-color="#FFFBEB"/>
<stop offset="0.5" stop-color="#FDE68A"/>
<stop offset="1" stop-color="#FEF3C7"/>
</linearGradient>
<linearGradient id="paint8_linear_1922_6898" x1="204.999" y1="42" x2="303.499" y2="310.5" gradientUnits="userSpaceOnUse">
<stop stop-color="#FFFBEB"/>
<stop offset="0.5" stop-color="#FDE68A"/>
<stop offset="1" stop-color="#FEF3C7"/>
</linearGradient>
<linearGradient id="paint9_linear_1922_6898" x1="204.999" y1="42" x2="303.499" y2="310.5" gradientUnits="userSpaceOnUse">
<stop stop-color="#FFFBEB"/>
<stop offset="0.5" stop-color="#FDE68A"/>
<stop offset="1" stop-color="#FEF3C7"/>
</linearGradient>
<linearGradient id="paint10_linear_1922_6898" x1="204.999" y1="42" x2="303.499" y2="310.5" gradientUnits="userSpaceOnUse">
<stop stop-color="#FFFBEB"/>
<stop offset="0.5" stop-color="#FDE68A"/>
<stop offset="1" stop-color="#FEF3C7"/>
</linearGradient>
<linearGradient id="paint11_linear_1922_6898" x1="204.999" y1="42" x2="303.499" y2="310.5" gradientUnits="userSpaceOnUse">
<stop stop-color="#FFFBEB"/>
<stop offset="0.5" stop-color="#FDE68A"/>
<stop offset="1" stop-color="#FEF3C7"/>
</linearGradient>
<linearGradient id="paint12_linear_1922_6898" x1="204.999" y1="42" x2="303.499" y2="310.5" gradientUnits="userSpaceOnUse">
<stop stop-color="#FFFBEB"/>
<stop offset="0.5" stop-color="#FDE68A"/>
<stop offset="1" stop-color="#FEF3C7"/>
</linearGradient>
<linearGradient id="paint13_linear_1922_6898" x1="204.999" y1="42" x2="303.499" y2="310.5" gradientUnits="userSpaceOnUse">
<stop stop-color="#FFFBEB"/>
<stop offset="0.5" stop-color="#FDE68A"/>
<stop offset="1" stop-color="#FEF3C7"/>
</linearGradient>
<linearGradient id="paint14_linear_1922_6898" x1="204.999" y1="42" x2="303.499" y2="310.5" gradientUnits="userSpaceOnUse">
<stop stop-color="#FFFBEB"/>
<stop offset="0.5" stop-color="#FDE68A"/>
<stop offset="1" stop-color="#FEF3C7"/>
</linearGradient>
<linearGradient id="paint15_linear_1922_6898" x1="204.999" y1="42" x2="303.499" y2="310.5" gradientUnits="userSpaceOnUse">
<stop stop-color="#FFFBEB"/>
<stop offset="0.5" stop-color="#FDE68A"/>
<stop offset="1" stop-color="#FEF3C7"/>
</linearGradient>
<linearGradient id="paint16_linear_1922_6898" x1="204.999" y1="42" x2="303.499" y2="310.5" gradientUnits="userSpaceOnUse">
<stop stop-color="#FFFBEB"/>
<stop offset="0.5" stop-color="#FDE68A"/>
<stop offset="1" stop-color="#FEF3C7"/>
</linearGradient>
<linearGradient id="paint17_linear_1922_6898" x1="204.999" y1="42" x2="303.499" y2="310.5" gradientUnits="userSpaceOnUse">
<stop stop-color="#FFFBEB"/>
<stop offset="0.5" stop-color="#FDE68A"/>
<stop offset="1" stop-color="#FEF3C7"/>
</linearGradient>
<linearGradient id="paint18_linear_1922_6898" x1="204.999" y1="42" x2="303.499" y2="310.5" gradientUnits="userSpaceOnUse">
<stop stop-color="#FFFBEB"/>
<stop offset="0.5" stop-color="#FDE68A"/>
<stop offset="1" stop-color="#FEF3C7"/>
</linearGradient>
<linearGradient id="paint19_linear_1922_6898" x1="204.999" y1="42" x2="303.499" y2="310.5" gradientUnits="userSpaceOnUse">
<stop stop-color="#FFFBEB"/>
<stop offset="0.5" stop-color="#FDE68A"/>
<stop offset="1" stop-color="#FEF3C7"/>
</linearGradient>
<linearGradient id="paint20_linear_1922_6898" x1="204.999" y1="42" x2="303.499" y2="310.5" gradientUnits="userSpaceOnUse">
<stop stop-color="#FFFBEB"/>
<stop offset="0.5" stop-color="#FDE68A"/>
<stop offset="1" stop-color="#FEF3C7"/>
</linearGradient>
<linearGradient id="paint21_linear_1922_6898" x1="204.999" y1="42" x2="303.499" y2="310.5" gradientUnits="userSpaceOnUse">
<stop stop-color="#FFFBEB"/>
<stop offset="0.5" stop-color="#FDE68A"/>
<stop offset="1" stop-color="#FEF3C7"/>
</linearGradient>
<linearGradient id="paint22_linear_1922_6898" x1="204.999" y1="42" x2="303.499" y2="310.5" gradientUnits="userSpaceOnUse">
<stop stop-color="#FFFBEB"/>
<stop offset="0.5" stop-color="#FDE68A"/>
<stop offset="1" stop-color="#FEF3C7"/>
</linearGradient>
<linearGradient id="paint23_linear_1922_6898" x1="204.999" y1="42" x2="303.499" y2="310.5" gradientUnits="userSpaceOnUse">
<stop stop-color="#FFFBEB"/>
<stop offset="0.5" stop-color="#FDE68A"/>
<stop offset="1" stop-color="#FEF3C7"/>
</linearGradient>
<linearGradient id="paint24_linear_1922_6898" x1="204.999" y1="42" x2="303.499" y2="310.5" gradientUnits="userSpaceOnUse">
<stop stop-color="#FFFBEB"/>
<stop offset="0.5" stop-color="#FDE68A"/>
<stop offset="1" stop-color="#FEF3C7"/>
</linearGradient>
<linearGradient id="paint25_linear_1922_6898" x1="204.999" y1="42" x2="303.499" y2="310.5" gradientUnits="userSpaceOnUse">
<stop stop-color="#FFFBEB"/>
<stop offset="0.5" stop-color="#FDE68A"/>
<stop offset="1" stop-color="#FEF3C7"/>
</linearGradient>
<linearGradient id="paint26_linear_1922_6898" x1="204.999" y1="42" x2="303.499" y2="310.5" gradientUnits="userSpaceOnUse">
<stop stop-color="#FFFBEB"/>
<stop offset="0.5" stop-color="#FDE68A"/>
<stop offset="1" stop-color="#FEF3C7"/>
</linearGradient>
<linearGradient id="paint27_linear_1922_6898" x1="204.999" y1="42" x2="303.499" y2="310.5" gradientUnits="userSpaceOnUse">
<stop stop-color="#FFFBEB"/>
<stop offset="0.5" stop-color="#FDE68A"/>
<stop offset="1" stop-color="#FEF3C7"/>
</linearGradient>
<linearGradient id="paint28_linear_1922_6898" x1="204.999" y1="42" x2="303.499" y2="310.5" gradientUnits="userSpaceOnUse">
<stop stop-color="#FFFBEB"/>
<stop offset="0.5" stop-color="#FDE68A"/>
<stop offset="1" stop-color="#FEF3C7"/>
</linearGradient>
<linearGradient id="paint29_linear_1922_6898" x1="204.999" y1="42" x2="303.499" y2="310.5" gradientUnits="userSpaceOnUse">
<stop stop-color="#FFFBEB"/>
<stop offset="0.5" stop-color="#FDE68A"/>
<stop offset="1" stop-color="#FEF3C7"/>
</linearGradient>
<linearGradient id="paint30_linear_1922_6898" x1="204.999" y1="42" x2="303.499" y2="310.5" gradientUnits="userSpaceOnUse">
<stop stop-color="#FFFBEB"/>
<stop offset="0.5" stop-color="#FDE68A"/>
<stop offset="1" stop-color="#FEF3C7"/>
</linearGradient>
<linearGradient id="paint31_linear_1922_6898" x1="204.999" y1="42" x2="303.499" y2="310.5" gradientUnits="userSpaceOnUse">
<stop stop-color="#FFFBEB"/>
<stop offset="0.5" stop-color="#FDE68A"/>
<stop offset="1" stop-color="#FEF3C7"/>
</linearGradient>
<linearGradient id="paint32_linear_1922_6898" x1="204.999" y1="42" x2="303.499" y2="310.5" gradientUnits="userSpaceOnUse">
<stop stop-color="#FFFBEB"/>
<stop offset="0.5" stop-color="#FDE68A"/>
<stop offset="1" stop-color="#FEF3C7"/>
</linearGradient>
<linearGradient id="paint33_linear_1922_6898" x1="204.999" y1="42" x2="303.499" y2="310.5" gradientUnits="userSpaceOnUse">
<stop stop-color="#FFFBEB"/>
<stop offset="0.5" stop-color="#FDE68A"/>
<stop offset="1" stop-color="#FEF3C7"/>
</linearGradient>
<linearGradient id="paint34_linear_1922_6898" x1="204.999" y1="42" x2="303.499" y2="310.5" gradientUnits="userSpaceOnUse">
<stop stop-color="#FFFBEB"/>
<stop offset="0.5" stop-color="#FDE68A"/>
<stop offset="1" stop-color="#FEF3C7"/>
</linearGradient>
<linearGradient id="paint35_linear_1922_6898" x1="204.999" y1="42" x2="303.499" y2="310.5" gradientUnits="userSpaceOnUse">
<stop stop-color="#FFFBEB"/>
<stop offset="0.5" stop-color="#FDE68A"/>
<stop offset="1" stop-color="#FEF3C7"/>
</linearGradient>
<linearGradient id="paint36_linear_1922_6898" x1="204.999" y1="42" x2="303.499" y2="310.5" gradientUnits="userSpaceOnUse">
<stop stop-color="#FFFBEB"/>
<stop offset="0.5" stop-color="#FDE68A"/>
<stop offset="1" stop-color="#FEF3C7"/>
</linearGradient>
<linearGradient id="paint37_linear_1922_6898" x1="204.999" y1="42" x2="303.499" y2="310.5" gradientUnits="userSpaceOnUse">
<stop stop-color="#FFFBEB"/>
<stop offset="0.5" stop-color="#FDE68A"/>
<stop offset="1" stop-color="#FEF3C7"/>
</linearGradient>
<linearGradient id="paint38_linear_1922_6898" x1="204.999" y1="42" x2="303.499" y2="310.5" gradientUnits="userSpaceOnUse">
<stop stop-color="#FFFBEB"/>
<stop offset="0.5" stop-color="#FDE68A"/>
<stop offset="1" stop-color="#FEF3C7"/>
</linearGradient>
<linearGradient id="paint39_linear_1922_6898" x1="204.999" y1="42" x2="303.499" y2="310.5" gradientUnits="userSpaceOnUse">
<stop stop-color="#FFFBEB"/>
<stop offset="0.5" stop-color="#FDE68A"/>
<stop offset="1" stop-color="#FEF3C7"/>
</linearGradient>
<linearGradient id="paint40_linear_1922_6898" x1="204.999" y1="42" x2="303.499" y2="310.5" gradientUnits="userSpaceOnUse">
<stop stop-color="#FFFBEB"/>
<stop offset="0.5" stop-color="#FDE68A"/>
<stop offset="1" stop-color="#FEF3C7"/>
</linearGradient>
<linearGradient id="paint41_linear_1922_6898" x1="204.999" y1="42" x2="303.499" y2="310.5" gradientUnits="userSpaceOnUse">
<stop stop-color="#FFFBEB"/>
<stop offset="0.5" stop-color="#FDE68A"/>
<stop offset="1" stop-color="#FEF3C7"/>
</linearGradient>
<linearGradient id="paint42_linear_1922_6898" x1="204.999" y1="42" x2="303.499" y2="310.5" gradientUnits="userSpaceOnUse">
<stop stop-color="#FFFBEB"/>
<stop offset="0.5" stop-color="#FDE68A"/>
<stop offset="1" stop-color="#FEF3C7"/>
</linearGradient>
<linearGradient id="paint43_linear_1922_6898" x1="204.999" y1="42" x2="303.499" y2="310.5" gradientUnits="userSpaceOnUse">
<stop stop-color="#FFFBEB"/>
<stop offset="0.5" stop-color="#FDE68A"/>
<stop offset="1" stop-color="#FEF3C7"/>
</linearGradient>
<linearGradient id="paint44_linear_1922_6898" x1="204.999" y1="42" x2="303.499" y2="310.5" gradientUnits="userSpaceOnUse">
<stop stop-color="#FFFBEB"/>
<stop offset="0.5" stop-color="#FDE68A"/>
<stop offset="1" stop-color="#FEF3C7"/>
</linearGradient>
<linearGradient id="paint45_linear_1922_6898" x1="204.999" y1="42" x2="303.499" y2="310.5" gradientUnits="userSpaceOnUse">
<stop stop-color="#FFFBEB"/>
<stop offset="0.5" stop-color="#FDE68A"/>
<stop offset="1" stop-color="#FEF3C7"/>
</linearGradient>
<linearGradient id="paint46_linear_1922_6898" x1="204.999" y1="42" x2="303.499" y2="310.5" gradientUnits="userSpaceOnUse">
<stop stop-color="#FFFBEB"/>
<stop offset="0.5" stop-color="#FDE68A"/>
<stop offset="1" stop-color="#FEF3C7"/>
</linearGradient>
<linearGradient id="paint47_linear_1922_6898" x1="204.999" y1="42" x2="303.499" y2="310.5" gradientUnits="userSpaceOnUse">
<stop stop-color="#FFFBEB"/>
<stop offset="0.5" stop-color="#FDE68A"/>
<stop offset="1" stop-color="#FEF3C7"/>
</linearGradient>
<linearGradient id="paint48_linear_1922_6898" x1="204.999" y1="42" x2="303.499" y2="310.5" gradientUnits="userSpaceOnUse">
<stop stop-color="#FFFBEB"/>
<stop offset="0.5" stop-color="#FDE68A"/>
<stop offset="1" stop-color="#FEF3C7"/>
</linearGradient>
<linearGradient id="paint49_linear_1922_6898" x1="204.999" y1="42" x2="303.499" y2="310.5" gradientUnits="userSpaceOnUse">
<stop stop-color="#FFFBEB"/>
<stop offset="0.5" stop-color="#FDE68A"/>
<stop offset="1" stop-color="#FEF3C7"/>
</linearGradient>
<linearGradient id="paint50_linear_1922_6898" x1="204.999" y1="42" x2="303.499" y2="310.5" gradientUnits="userSpaceOnUse">
<stop stop-color="#FFFBEB"/>
<stop offset="0.5" stop-color="#FDE68A"/>
<stop offset="1" stop-color="#FEF3C7"/>
</linearGradient>
<linearGradient id="paint51_linear_1922_6898" x1="204.999" y1="42" x2="303.499" y2="310.5" gradientUnits="userSpaceOnUse">
<stop stop-color="#FFFBEB"/>
<stop offset="0.5" stop-color="#FDE68A"/>
<stop offset="1" stop-color="#FEF3C7"/>
</linearGradient>
<linearGradient id="paint52_linear_1922_6898" x1="204.999" y1="42" x2="303.499" y2="310.5" gradientUnits="userSpaceOnUse">
<stop stop-color="#FFFBEB"/>
<stop offset="0.5" stop-color="#FDE68A"/>
<stop offset="1" stop-color="#FEF3C7"/>
</linearGradient>
<linearGradient id="paint53_linear_1922_6898" x1="204.999" y1="42" x2="303.499" y2="310.5" gradientUnits="userSpaceOnUse">
<stop stop-color="#FFFBEB"/>
<stop offset="0.5" stop-color="#FDE68A"/>
<stop offset="1" stop-color="#FEF3C7"/>
</linearGradient>
<linearGradient id="paint54_linear_1922_6898" x1="204.999" y1="42" x2="303.499" y2="310.5" gradientUnits="userSpaceOnUse">
<stop stop-color="#FFFBEB"/>
<stop offset="0.5" stop-color="#FDE68A"/>
<stop offset="1" stop-color="#FEF3C7"/>
</linearGradient>
<linearGradient id="paint55_linear_1922_6898" x1="204.999" y1="42" x2="303.499" y2="310.5" gradientUnits="userSpaceOnUse">
<stop stop-color="#FFFBEB"/>
<stop offset="0.5" stop-color="#FDE68A"/>
<stop offset="1" stop-color="#FEF3C7"/>
</linearGradient>
<linearGradient id="paint56_linear_1922_6898" x1="204.999" y1="42" x2="303.499" y2="310.5" gradientUnits="userSpaceOnUse">
<stop stop-color="#FFFBEB"/>
<stop offset="0.5" stop-color="#FDE68A"/>
<stop offset="1" stop-color="#FEF3C7"/>
</linearGradient>
<linearGradient id="paint57_linear_1922_6898" x1="204.999" y1="42" x2="303.499" y2="310.5" gradientUnits="userSpaceOnUse">
<stop stop-color="#FFFBEB"/>
<stop offset="0.5" stop-color="#FDE68A"/>
<stop offset="1" stop-color="#FEF3C7"/>
</linearGradient>
<linearGradient id="paint58_linear_1922_6898" x1="204.999" y1="42" x2="303.499" y2="310.5" gradientUnits="userSpaceOnUse">
<stop stop-color="#FFFBEB"/>
<stop offset="0.5" stop-color="#FDE68A"/>
<stop offset="1" stop-color="#FEF3C7"/>
</linearGradient>
<linearGradient id="paint59_linear_1922_6898" x1="204.999" y1="42" x2="303.499" y2="310.5" gradientUnits="userSpaceOnUse">
<stop stop-color="#FFFBEB"/>
<stop offset="0.5" stop-color="#FDE68A"/>
<stop offset="1" stop-color="#FEF3C7"/>
</linearGradient>
<linearGradient id="paint60_linear_1922_6898" x1="204.999" y1="42" x2="303.499" y2="310.5" gradientUnits="userSpaceOnUse">
<stop stop-color="#FFFBEB"/>
<stop offset="0.5" stop-color="#FDE68A"/>
<stop offset="1" stop-color="#FEF3C7"/>
</linearGradient>
<linearGradient id="paint61_linear_1922_6898" x1="204.999" y1="42" x2="303.499" y2="310.5" gradientUnits="userSpaceOnUse">
<stop stop-color="#FFFBEB"/>
<stop offset="0.5" stop-color="#FDE68A"/>
<stop offset="1" stop-color="#FEF3C7"/>
</linearGradient>
<linearGradient id="paint62_linear_1922_6898" x1="204.999" y1="42" x2="303.499" y2="310.5" gradientUnits="userSpaceOnUse">
<stop stop-color="#FFFBEB"/>
<stop offset="0.5" stop-color="#FDE68A"/>
<stop offset="1" stop-color="#FEF3C7"/>
</linearGradient>
<linearGradient id="paint63_linear_1922_6898" x1="204.999" y1="42" x2="303.499" y2="310.5" gradientUnits="userSpaceOnUse">
<stop stop-color="#FFFBEB"/>
<stop offset="0.5" stop-color="#FDE68A"/>
<stop offset="1" stop-color="#FEF3C7"/>
</linearGradient>
<linearGradient id="paint64_linear_1922_6898" x1="204.999" y1="42" x2="303.499" y2="310.5" gradientUnits="userSpaceOnUse">
<stop stop-color="#FFFBEB"/>
<stop offset="0.5" stop-color="#FDE68A"/>
<stop offset="1" stop-color="#FEF3C7"/>
</linearGradient>
<linearGradient id="paint65_linear_1922_6898" x1="204.999" y1="42" x2="303.499" y2="310.5" gradientUnits="userSpaceOnUse">
<stop stop-color="#FFFBEB"/>
<stop offset="0.5" stop-color="#FDE68A"/>
<stop offset="1" stop-color="#FEF3C7"/>
</linearGradient>
<linearGradient id="paint66_linear_1922_6898" x1="204.999" y1="42" x2="303.499" y2="310.5" gradientUnits="userSpaceOnUse">
<stop stop-color="#FFFBEB"/>
<stop offset="0.5" stop-color="#FDE68A"/>
<stop offset="1" stop-color="#FEF3C7"/>
</linearGradient>
<linearGradient id="paint67_linear_1922_6898" x1="204.999" y1="42" x2="303.499" y2="310.5" gradientUnits="userSpaceOnUse">
<stop stop-color="#FFFBEB"/>
<stop offset="0.5" stop-color="#FDE68A"/>
<stop offset="1" stop-color="#FEF3C7"/>
</linearGradient>
<linearGradient id="paint68_linear_1922_6898" x1="204.999" y1="42" x2="303.499" y2="310.5" gradientUnits="userSpaceOnUse">
<stop stop-color="#FFFBEB"/>
<stop offset="0.5" stop-color="#FDE68A"/>
<stop offset="1" stop-color="#FEF3C7"/>
</linearGradient>
<linearGradient id="paint69_linear_1922_6898" x1="204.999" y1="42" x2="303.499" y2="310.5" gradientUnits="userSpaceOnUse">
<stop stop-color="#FFFBEB"/>
<stop offset="0.5" stop-color="#FDE68A"/>
<stop offset="1" stop-color="#FEF3C7"/>
</linearGradient>
<linearGradient id="paint70_linear_1922_6898" x1="204.999" y1="42" x2="303.499" y2="310.5" gradientUnits="userSpaceOnUse">
<stop stop-color="#FFFBEB"/>
<stop offset="0.5" stop-color="#FDE68A"/>
<stop offset="1" stop-color="#FEF3C7"/>
</linearGradient>
<linearGradient id="paint71_linear_1922_6898" x1="204.999" y1="42" x2="303.499" y2="310.5" gradientUnits="userSpaceOnUse">
<stop stop-color="#FFFBEB"/>
<stop offset="0.5" stop-color="#FDE68A"/>
<stop offset="1" stop-color="#FEF3C7"/>
</linearGradient>
<linearGradient id="paint72_linear_1922_6898" x1="204.999" y1="42" x2="303.499" y2="310.5" gradientUnits="userSpaceOnUse">
<stop stop-color="#FFFBEB"/>
<stop offset="0.5" stop-color="#FDE68A"/>
<stop offset="1" stop-color="#FEF3C7"/>
</linearGradient>
<linearGradient id="paint73_linear_1922_6898" x1="204.999" y1="42" x2="303.499" y2="310.5" gradientUnits="userSpaceOnUse">
<stop stop-color="#FFFBEB"/>
<stop offset="0.5" stop-color="#FDE68A"/>
<stop offset="1" stop-color="#FEF3C7"/>
</linearGradient>
<linearGradient id="paint74_linear_1922_6898" x1="204.999" y1="42" x2="303.499" y2="310.5" gradientUnits="userSpaceOnUse">
<stop stop-color="#FFFBEB"/>
<stop offset="0.5" stop-color="#FDE68A"/>
<stop offset="1" stop-color="#FEF3C7"/>
</linearGradient>
<linearGradient id="paint75_linear_1922_6898" x1="204.999" y1="42" x2="303.499" y2="310.5" gradientUnits="userSpaceOnUse">
<stop stop-color="#FFFBEB"/>
<stop offset="0.5" stop-color="#FDE68A"/>
<stop offset="1" stop-color="#FEF3C7"/>
</linearGradient>
<linearGradient id="paint76_linear_1922_6898" x1="204.999" y1="42" x2="303.499" y2="310.5" gradientUnits="userSpaceOnUse">
<stop stop-color="#FFFBEB"/>
<stop offset="0.5" stop-color="#FDE68A"/>
<stop offset="1" stop-color="#FEF3C7"/>
</linearGradient>
<linearGradient id="paint77_linear_1922_6898" x1="204.999" y1="42" x2="303.499" y2="310.5" gradientUnits="userSpaceOnUse">
<stop stop-color="#FFFBEB"/>
<stop offset="0.5" stop-color="#FDE68A"/>
<stop offset="1" stop-color="#FEF3C7"/>
</linearGradient>
<linearGradient id="paint78_linear_1922_6898" x1="204.999" y1="42" x2="303.499" y2="310.5" gradientUnits="userSpaceOnUse">
<stop stop-color="#FFFBEB"/>
<stop offset="0.5" stop-color="#FDE68A"/>
<stop offset="1" stop-color="#FEF3C7"/>
</linearGradient>
<linearGradient id="paint79_linear_1922_6898" x1="204.999" y1="42" x2="303.499" y2="310.5" gradientUnits="userSpaceOnUse">
<stop stop-color="#FFFBEB"/>
<stop offset="0.5" stop-color="#FDE68A"/>
<stop offset="1" stop-color="#FEF3C7"/>
</linearGradient>
<linearGradient id="paint80_linear_1922_6898" x1="204.999" y1="42" x2="303.499" y2="310.5" gradientUnits="userSpaceOnUse">
<stop stop-color="#FFFBEB"/>
<stop offset="0.5" stop-color="#FDE68A"/>
<stop offset="1" stop-color="#FEF3C7"/>
</linearGradient>
<linearGradient id="paint81_linear_1922_6898" x1="204.999" y1="42" x2="303.499" y2="310.5" gradientUnits="userSpaceOnUse">
<stop stop-color="#FFFBEB"/>
<stop offset="0.5" stop-color="#FDE68A"/>
<stop offset="1" stop-color="#FEF3C7"/>
</linearGradient>
<linearGradient id="paint82_linear_1922_6898" x1="204.999" y1="42" x2="303.499" y2="310.5" gradientUnits="userSpaceOnUse">
<stop stop-color="#FFFBEB"/>
<stop offset="0.5" stop-color="#FDE68A"/>
<stop offset="1" stop-color="#FEF3C7"/>
</linearGradient>
<linearGradient id="paint83_linear_1922_6898" x1="204.999" y1="42" x2="303.499" y2="310.5" gradientUnits="userSpaceOnUse">
<stop stop-color="#FFFBEB"/>
<stop offset="0.5" stop-color="#FDE68A"/>
<stop offset="1" stop-color="#FEF3C7"/>
</linearGradient>
<linearGradient id="paint84_linear_1922_6898" x1="204.999" y1="42" x2="303.499" y2="310.5" gradientUnits="userSpaceOnUse">
<stop stop-color="#FFFBEB"/>
<stop offset="0.5" stop-color="#FDE68A"/>
<stop offset="1" stop-color="#FEF3C7"/>
</linearGradient>
<linearGradient id="paint85_linear_1922_6898" x1="204.999" y1="42" x2="303.499" y2="310.5" gradientUnits="userSpaceOnUse">
<stop stop-color="#FFFBEB"/>
<stop offset="0.5" stop-color="#FDE68A"/>
<stop offset="1" stop-color="#FEF3C7"/>
</linearGradient>
<linearGradient id="paint86_linear_1922_6898" x1="204.999" y1="42" x2="303.499" y2="310.5" gradientUnits="userSpaceOnUse">
<stop stop-color="#FFFBEB"/>
<stop offset="0.5" stop-color="#FDE68A"/>
<stop offset="1" stop-color="#FEF3C7"/>
</linearGradient>
<linearGradient id="paint87_linear_1922_6898" x1="204.999" y1="42" x2="303.499" y2="310.5" gradientUnits="userSpaceOnUse">
<stop stop-color="#FFFBEB"/>
<stop offset="0.5" stop-color="#FDE68A"/>
<stop offset="1" stop-color="#FEF3C7"/>
</linearGradient>
<linearGradient id="paint88_linear_1922_6898" x1="204.999" y1="42" x2="303.499" y2="310.5" gradientUnits="userSpaceOnUse">
<stop stop-color="#FFFBEB"/>
<stop offset="0.5" stop-color="#FDE68A"/>
<stop offset="1" stop-color="#FEF3C7"/>
</linearGradient>
<linearGradient id="paint89_linear_1922_6898" x1="204.999" y1="42" x2="303.499" y2="310.5" gradientUnits="userSpaceOnUse">
<stop stop-color="#FFFBEB"/>
<stop offset="0.5" stop-color="#FDE68A"/>
<stop offset="1" stop-color="#FEF3C7"/>
</linearGradient>
<linearGradient id="paint90_linear_1922_6898" x1="204.999" y1="42" x2="303.499" y2="310.5" gradientUnits="userSpaceOnUse">
<stop stop-color="#FFFBEB"/>
<stop offset="0.5" stop-color="#FDE68A"/>
<stop offset="1" stop-color="#FEF3C7"/>
</linearGradient>
<linearGradient id="paint91_linear_1922_6898" x1="204.999" y1="42" x2="303.499" y2="310.5" gradientUnits="userSpaceOnUse">
<stop stop-color="#FFFBEB"/>
<stop offset="0.5" stop-color="#FDE68A"/>
<stop offset="1" stop-color="#FEF3C7"/>
</linearGradient>
<linearGradient id="paint92_linear_1922_6898" x1="204.999" y1="42" x2="303.499" y2="310.5" gradientUnits="userSpaceOnUse">
<stop stop-color="#FFFBEB"/>
<stop offset="0.5" stop-color="#FDE68A"/>
<stop offset="1" stop-color="#FEF3C7"/>
</linearGradient>
<linearGradient id="paint93_linear_1922_6898" x1="204.999" y1="42" x2="303.499" y2="310.5" gradientUnits="userSpaceOnUse">
<stop stop-color="#FFFBEB"/>
<stop offset="0.5" stop-color="#FDE68A"/>
<stop offset="1" stop-color="#FEF3C7"/>
</linearGradient>
<linearGradient id="paint94_linear_1922_6898" x1="204.999" y1="42" x2="303.499" y2="310.5" gradientUnits="userSpaceOnUse">
<stop stop-color="#FFFBEB"/>
<stop offset="0.5" stop-color="#FDE68A"/>
<stop offset="1" stop-color="#FEF3C7"/>
</linearGradient>
<linearGradient id="paint95_linear_1922_6898" x1="204.999" y1="42" x2="303.499" y2="310.5" gradientUnits="userSpaceOnUse">
<stop stop-color="#FFFBEB"/>
<stop offset="0.5" stop-color="#FDE68A"/>
<stop offset="1" stop-color="#FEF3C7"/>
</linearGradient>
<linearGradient id="paint96_linear_1922_6898" x1="204.999" y1="42" x2="303.499" y2="310.5" gradientUnits="userSpaceOnUse">
<stop stop-color="#FFFBEB"/>
<stop offset="0.5" stop-color="#FDE68A"/>
<stop offset="1" stop-color="#FEF3C7"/>
</linearGradient>
<linearGradient id="paint97_linear_1922_6898" x1="204.999" y1="42" x2="303.499" y2="310.5" gradientUnits="userSpaceOnUse">
<stop stop-color="#FFFBEB"/>
<stop offset="0.5" stop-color="#FDE68A"/>
<stop offset="1" stop-color="#FEF3C7"/>
</linearGradient>
<linearGradient id="paint98_linear_1922_6898" x1="204.999" y1="42" x2="303.499" y2="310.5" gradientUnits="userSpaceOnUse">
<stop stop-color="#FFFBEB"/>
<stop offset="0.5" stop-color="#FDE68A"/>
<stop offset="1" stop-color="#FEF3C7"/>
</linearGradient>
<linearGradient id="paint99_linear_1922_6898" x1="204.999" y1="42" x2="303.499" y2="310.5" gradientUnits="userSpaceOnUse">
<stop stop-color="#FFFBEB"/>
<stop offset="0.5" stop-color="#FDE68A"/>
<stop offset="1" stop-color="#FEF3C7"/>
</linearGradient>
<linearGradient id="paint100_linear_1922_6898" x1="204.999" y1="42" x2="303.499" y2="310.5" gradientUnits="userSpaceOnUse">
<stop stop-color="#FFFBEB"/>
<stop offset="0.5" stop-color="#FDE68A"/>
<stop offset="1" stop-color="#FEF3C7"/>
</linearGradient>
<linearGradient id="paint101_linear_1922_6898" x1="204.999" y1="42" x2="303.499" y2="310.5" gradientUnits="userSpaceOnUse">
<stop stop-color="#FFFBEB"/>
<stop offset="0.5" stop-color="#FDE68A"/>
<stop offset="1" stop-color="#FEF3C7"/>
</linearGradient>
<linearGradient id="paint102_linear_1922_6898" x1="204.999" y1="42" x2="303.499" y2="310.5" gradientUnits="userSpaceOnUse">
<stop stop-color="#FFFBEB"/>
<stop offset="0.5" stop-color="#FDE68A"/>
<stop offset="1" stop-color="#FEF3C7"/>
</linearGradient>
<linearGradient id="paint103_linear_1922_6898" x1="204.999" y1="42" x2="303.499" y2="310.5" gradientUnits="userSpaceOnUse">
<stop stop-color="#FFFBEB"/>
<stop offset="0.5" stop-color="#FDE68A"/>
<stop offset="1" stop-color="#FEF3C7"/>
</linearGradient>
<linearGradient id="paint104_linear_1922_6898" x1="204.999" y1="42" x2="303.499" y2="310.5" gradientUnits="userSpaceOnUse">
<stop stop-color="#FFFBEB"/>
<stop offset="0.5" stop-color="#FDE68A"/>
<stop offset="1" stop-color="#FEF3C7"/>
</linearGradient>
<linearGradient id="paint105_linear_1922_6898" x1="204.999" y1="42" x2="303.499" y2="310.5" gradientUnits="userSpaceOnUse">
<stop stop-color="#FFFBEB"/>
<stop offset="0.5" stop-color="#FDE68A"/>
<stop offset="1" stop-color="#FEF3C7"/>
</linearGradient>
<linearGradient id="paint106_linear_1922_6898" x1="204.999" y1="42" x2="303.499" y2="310.5" gradientUnits="userSpaceOnUse">
<stop stop-color="#FFFBEB"/>
<stop offset="0.5" stop-color="#FDE68A"/>
<stop offset="1" stop-color="#FEF3C7"/>
</linearGradient>
<linearGradient id="paint107_linear_1922_6898" x1="204.999" y1="42" x2="303.499" y2="310.5" gradientUnits="userSpaceOnUse">
<stop stop-color="#FFFBEB"/>
<stop offset="0.5" stop-color="#FDE68A"/>
<stop offset="1" stop-color="#FEF3C7"/>
</linearGradient>
<linearGradient id="paint108_linear_1922_6898" x1="204.999" y1="42" x2="303.499" y2="310.5" gradientUnits="userSpaceOnUse">
<stop stop-color="#FFFBEB"/>
<stop offset="0.5" stop-color="#FDE68A"/>
<stop offset="1" stop-color="#FEF3C7"/>
</linearGradient>
<linearGradient id="paint109_linear_1922_6898" x1="204.999" y1="42" x2="303.499" y2="310.5" gradientUnits="userSpaceOnUse">
<stop stop-color="#FFFBEB"/>
<stop offset="0.5" stop-color="#FDE68A"/>
<stop offset="1" stop-color="#FEF3C7"/>
</linearGradient>
<linearGradient id="paint110_linear_1922_6898" x1="204.999" y1="42" x2="303.499" y2="310.5" gradientUnits="userSpaceOnUse">
<stop stop-color="#FFFBEB"/>
<stop offset="0.5" stop-color="#FDE68A"/>
<stop offset="1" stop-color="#FEF3C7"/>
</linearGradient>
<linearGradient id="paint111_linear_1922_6898" x1="204.999" y1="42" x2="303.499" y2="310.5" gradientUnits="userSpaceOnUse">
<stop stop-color="#FFFBEB"/>
<stop offset="0.5" stop-color="#FDE68A"/>
<stop offset="1" stop-color="#FEF3C7"/>
</linearGradient>
<clipPath id="clip0_1922_6898">
<rect width="516" height="100" fill="white"/>
</clipPath>
</defs>
</svg>
